<svg width="18" height="18" viewBox="0 0 18 18" fill="#146152" xmlns="http://www.w3.org/2000/svg">
<path fill-rule="evenodd" clip-rule="evenodd" d="M11.76 10.4167L17.49 16.2286L16 17.7399L10.27 11.928C9.2 12.709 7.91 13.1857 6.5 13.1857C2.91 13.1857 0 10.2341 0 6.59286C0 2.95157 2.91 0 6.5 0C10.09 0 13 2.95157 13 6.59286C13 8.023 12.53 9.33143 11.76 10.4167ZM6.5 2.02857C4.01 2.02857 2 4.06729 2 6.59286C2 9.11843 4.01 11.1571 6.5 11.1571C8.99 11.1571 11 9.11843 11 6.59286C11 4.06729 8.99 2.02857 6.5 2.02857Z" fill="#146152"/>
</svg>
