<svg width="45" height="44" viewBox="0 0 45 44" fill="none" xmlns="http://www.w3.org/2000/svg">
<path d="M30.93 30.1449H15.44C14.3354 30.1449 13.44 31.0204 13.44 32.1004C13.44 33.1804 14.3354 34.056 15.44 34.056H30.93C32.0346 34.056 32.93 33.1804 32.93 32.1004C32.93 31.0204 32.0346 30.1449 30.93 30.1449Z" fill="white"/>
<path d="M29.74 28.2969H16.27V23.848C16.27 20.2107 19.29 17.2578 23.01 17.2578C26.73 17.2578 29.75 20.2107 29.75 23.848V28.2969H29.74Z" fill="white"/>
<path d="M29.34 18.1671C29.1 18.1671 28.86 18.0791 28.68 17.9031C28.32 17.5511 28.32 16.9644 28.68 16.6124L31.57 13.7866C31.93 13.4346 32.53 13.4346 32.89 13.7866C33.25 14.1386 33.25 14.7253 32.89 15.0773L30 17.9031C29.82 18.0791 29.58 18.1671 29.34 18.1671Z" fill="white"/>
<path d="M36.05 24.376H31.97C31.45 24.376 31.04 23.9653 31.04 23.4667C31.04 22.968 31.46 22.5573 31.97 22.5573H36.05C36.57 22.5573 36.98 22.968 36.98 23.4667C36.98 23.9653 36.56 24.376 36.05 24.376Z" fill="white"/>
<path d="M14 24.376H9.91999C9.39999 24.376 8.98999 23.9653 8.98999 23.4667C8.98999 22.968 9.40999 22.5573 9.91999 22.5573H14C14.52 22.5573 14.93 22.968 14.93 23.4667C14.93 23.9653 14.51 24.376 14 24.376Z" fill="white"/>
<path d="M16.63 18.1671C16.39 18.1671 16.15 18.0791 15.97 17.9031L13.08 15.0773C12.72 14.7253 12.72 14.1386 13.08 13.7866C13.44 13.4346 14.04 13.4346 14.4 13.7866L17.29 16.6124C17.65 16.9644 17.65 17.5511 17.29 17.9031C17.11 18.0791 16.87 18.1671 16.63 18.1671Z" fill="white"/>
<path d="M22.99 15.5955C22.47 15.5955 22.06 15.1849 22.06 14.6862V10.6871C22.06 10.1787 22.48 9.77777 22.99 9.77777C23.5 9.77777 23.92 10.1884 23.92 10.6871V14.6764C23.92 15.1849 23.5 15.5858 22.99 15.5858V15.5955Z" fill="white"/>
</svg>
