<svg width="45" height="44" viewBox="0 0 45 44" fill="none" xmlns="http://www.w3.org/2000/svg">
<path d="M30.93 30.83H15.44C14.3354 30.83 13.44 31.7254 13.44 32.83C13.44 33.9346 14.3354 34.83 15.44 34.83H30.93C32.0346 34.83 32.93 33.9346 32.93 32.83C32.93 31.7254 32.0346 30.83 30.93 30.83Z" fill="#878787"/>
<path d="M29.74 28.94H16.27V24.39C16.27 20.67 19.29 17.65 23.01 17.65C26.73 17.65 29.75 20.67 29.75 24.39V28.94H29.74Z" fill="#878787"/>
<path d="M29.34 18.58C29.1 18.58 28.86 18.49 28.68 18.31C28.32 17.95 28.32 17.35 28.68 16.99L31.57 14.1C31.93 13.74 32.53 13.74 32.89 14.1C33.25 14.46 33.25 15.06 32.89 15.42L30 18.31C29.82 18.49 29.58 18.58 29.34 18.58Z" fill="#878787"/>
<path d="M36.05 24.93H31.97C31.45 24.93 31.04 24.51 31.04 24C31.04 23.49 31.46 23.07 31.97 23.07H36.05C36.57 23.07 36.98 23.49 36.98 24C36.98 24.51 36.56 24.93 36.05 24.93Z" fill="#878787"/>
<path d="M14 24.93H9.91999C9.39999 24.93 8.98999 24.51 8.98999 24C8.98999 23.49 9.40999 23.07 9.91999 23.07H14C14.52 23.07 14.93 23.49 14.93 24C14.93 24.51 14.51 24.93 14 24.93Z" fill="#878787"/>
<path d="M16.63 18.58C16.39 18.58 16.15 18.49 15.97 18.31L13.08 15.42C12.72 15.06 12.72 14.46 13.08 14.1C13.44 13.74 14.04 13.74 14.4 14.1L17.29 16.99C17.65 17.35 17.65 17.95 17.29 18.31C17.11 18.49 16.87 18.58 16.63 18.58Z" fill="#878787"/>
<path d="M22.99 15.95C22.47 15.95 22.06 15.53 22.06 15.02V10.93C22.06 10.41 22.48 10 22.99 10C23.5 10 23.92 10.42 23.92 10.93V15.01C23.92 15.53 23.5 15.94 22.99 15.94V15.95Z" fill="#878787"/>
</svg>
