<svg width="44" height="44" viewBox="0 0 44 44" fill="none" xmlns="http://www.w3.org/2000/svg">
<path d="M36 21V33.84C36 35.03 35.04 35.99 33.85 35.99H27.79C26.6 35.99 25.64 35.03 25.64 33.84V26.75C25.64 25.56 24.68 24.6 23.49 24.6H20.54C19.35 24.6 18.39 25.56 18.39 26.75V33.84C18.39 35.03 17.43 35.99 16.24 35.99H10.15C8.96 35.99 8 35.03 8 33.84V21C8 20.43 8.23 19.88 8.63 19.48L20.48 8.63C21.32 7.79 22.69 7.79 23.53 8.63L35.38 19.47C35.78 19.87 36.01 20.42 36.01 20.99L36 21Z" fill="#878787"/>
</svg>
