<svg width="121" height="179" viewBox="0 0 121 179" fill="none" xmlns="http://www.w3.org/2000/svg">
<path d="M27.2502 179C26.089 179 24.9123 178.961 23.7201 178.876C20.7319 178.675 18.4791 176.089 18.6803 173.101C18.8816 170.113 21.4673 167.868 24.4555 168.061C30.943 168.502 36.664 167.419 41.4792 164.833C47.657 161.512 50.4207 156.805 54.6089 149.683C57.4345 144.883 60.6318 139.433 65.6019 133.34C71.8802 125.645 76.1768 122.82 80.334 120.087C83.4074 118.066 86.3027 116.162 90.2896 111.842C94.5165 107.259 115.272 82.9971 108.947 54.8953C104.155 33.5983 84.0577 10.9233 56.2423 10.8304C56.2036 10.8304 56.1572 10.8304 56.1185 10.8304C44.3823 10.8304 32.1893 16.0095 23.4724 24.6955C17.7049 30.4398 10.8382 40.4186 10.8382 55.3133C10.8382 58.3093 8.41506 60.7324 5.41908 60.7324C2.4231 60.7324 0 58.3093 0 55.3133C0 40.5812 5.47327 27.3354 15.8237 17.0159C26.5148 6.35581 41.5721 0 56.1185 0C56.1726 0 56.2268 0 56.2733 0C89.7013 0.108382 113.801 27.1419 119.514 52.5186C127.023 85.9079 103.117 113.917 98.2479 119.197C93.363 124.492 89.6006 126.961 86.2795 129.144C82.4939 131.637 79.2192 133.789 73.9937 140.192C69.55 145.642 66.5773 150.705 63.9452 155.172C59.3854 162.921 55.4527 169.617 46.6041 174.378C40.8908 177.452 34.3879 179 27.2425 179H27.2502Z" fill="#44803F"/>
<path d="M38.2974 140.718C34.295 140.718 30.3933 138.852 27.2735 135.423C23.2246 130.979 21.0802 124.654 21.8079 119.297C22.613 113.367 26.5457 110.572 29.4256 108.536C31.4384 107.104 32.7158 106.152 33.4822 104.573C35.2705 100.911 33.3273 96.5525 29.743 89.1594C25.6168 80.6514 20.4764 70.061 21.924 56.0488C22.7601 47.9356 27.8541 39.6057 35.5569 33.7531C44.1268 27.2425 54.934 24.5175 65.2302 26.2671C87.1698 30.0062 99.6337 52.6502 97.5047 71.4622C95.0584 93.0998 75.511 103.473 73.2892 104.588C70.6106 105.928 67.3592 104.844 66.0199 102.173C64.6806 99.5021 65.7644 96.2429 68.4352 94.9036C69.1088 94.5707 84.8938 86.4808 86.7363 70.2545C88.3078 56.3662 79.3121 39.6677 63.4187 36.9659C53.3702 35.255 45.7603 39.6367 42.1295 42.4004C36.8497 46.4106 33.2499 52.0696 32.7235 57.179C31.5932 68.1256 35.8046 76.7961 39.5128 84.4525C43.3991 92.4727 47.4247 100.764 43.2443 109.342C41.2237 113.483 38.0419 115.744 35.7195 117.393C33.188 119.189 32.7158 119.692 32.5687 120.776C32.2745 122.936 33.4512 126.102 35.3092 128.138C35.7969 128.672 37.051 129.895 38.3284 129.895C38.3593 129.895 38.3826 129.895 38.4135 129.895C39.3812 129.857 40.5966 129.144 41.5953 128.045C43.3604 126.11 44.2894 123.292 44.1345 120.319C43.9797 117.331 46.2789 114.784 49.2672 114.629C52.2399 114.474 54.8024 116.773 54.9572 119.762C55.2514 125.599 53.3083 131.273 49.6078 135.33C46.6041 138.628 42.7952 140.54 38.878 140.71C38.6922 140.718 38.5064 140.726 38.3284 140.726L38.2974 140.718Z" fill="#B4CF66"/>
</svg>
