<svg xmlns="http://www.w3.org/2000/svg" xmlns:xlink="http://www.w3.org/1999/xlink" width="500" zoomAndPan="magnify" viewBox="0 0 375 374.999991" height="500" preserveAspectRatio="xMidYMid meet" version="1.0"><defs><g/><clipPath id="f6aa28d1e8"><path d="M 159.140625 120 L 216 120 L 216 205 L 159.140625 205 Z M 159.140625 120 " clip-rule="nonzero"/></clipPath></defs><g clip-path="url(#f6aa28d1e8)"><path fill="#365b6d" d="M 159.648438 150.769531 L 163.71875 151.273438 C 166.265625 147.230469 165.246094 131.050781 183.058594 127.511719 C 201.378906 123.972656 215.628906 141.667969 207.996094 161.890625 C 203.417969 174.53125 200.363281 167.957031 191.710938 189.191406 C 187.128906 199.808594 185.09375 196.777344 180.515625 199.808594 L 180.515625 203.347656 C 186.621094 206.886719 193.238281 199.304688 195.273438 195.261719 C 198.328125 188.6875 199.855469 183.125 203.925781 178.070312 C 208.503906 173.015625 210.542969 172.003906 213.59375 162.398438 C 215.628906 155.320312 216.140625 146.722656 213.59375 139.644531 C 209.523438 128.523438 197.308594 118.410156 181.023438 121.445312 C 164.230469 124.480469 156.085938 142.679688 159.140625 150.261719 Z M 159.648438 150.769531 " fill-opacity="1" fill-rule="evenodd"/></g><path fill="#41c1ba" d="M 176.953125 145.714844 C 176.953125 142.679688 178.988281 140.152344 182.550781 138.128906 C 183.566406 137.625 185.605469 137.117188 187.128906 136.613281 C 191.710938 136.105469 196.292969 139.140625 198.328125 143.183594 C 200.363281 147.734375 198.835938 155.320312 196.800781 160.375 C 196.292969 160.878906 196.292969 161.890625 195.78125 162.398438 L 200.363281 164.417969 C 201.378906 163.410156 202.398438 158.859375 202.90625 157.339844 C 204.941406 149.253906 204.941406 140.65625 198.835938 135.097656 C 196.800781 133.074219 195.78125 132.566406 192.730469 131.558594 C 186.621094 129.535156 179.496094 131.558594 175.425781 136.613281 C 174.917969 137.625 173.898438 138.128906 173.390625 139.644531 C 172.371094 142.175781 171.355469 144.195312 171.355469 147.230469 C 171.355469 153.296875 170.84375 155.824219 174.40625 160.375 C 174.917969 160.878906 175.425781 161.386719 175.425781 161.890625 C 175.933594 162.902344 175.933594 164.417969 175.425781 165.429688 C 174.917969 166.441406 174.40625 166.949219 173.390625 167.957031 C 171.355469 170.992188 171.355469 175.542969 174.40625 179.082031 C 174.917969 179.585938 176.441406 180.597656 177.460938 181.105469 C 183.058594 183.125 188.65625 179.082031 188.148438 173.519531 L 183.058594 173.519531 C 183.058594 175.035156 182.550781 175.542969 181.53125 176.046875 C 180.515625 176.554688 178.988281 176.046875 178.480469 175.542969 C 177.460938 174.53125 177.460938 170.992188 178.988281 169.476562 C 178.988281 169.476562 179.496094 169.476562 179.496094 168.96875 C 180.515625 167.453125 181.53125 165.9375 181.53125 163.914062 C 181.53125 161.386719 181.023438 159.363281 179.496094 157.847656 C 178.480469 156.332031 176.953125 155.320312 176.441406 152.792969 C 176.441406 151.273438 175.933594 146.722656 176.953125 145.207031 Z M 176.953125 145.714844 " fill-opacity="1" fill-rule="evenodd"/><g fill="#365b6d" fill-opacity="1"><g transform="translate(59.9639, 247.05199)"><g><path d="M 13 -3.703125 C 13.632812 -3.703125 14.078125 -3.765625 14.328125 -3.890625 L 14.390625 -3.875 L 14.234375 0 L 2.65625 0 L 2.65625 -20.65625 C 2.9375 -20.632812 3.242188 -20.617188 3.578125 -20.609375 L 4.671875 -20.578125 C 5.390625 -20.554688 6.171875 -20.546875 7.015625 -20.546875 C 9.367188 -20.546875 11.703125 -20.585938 14.015625 -20.671875 C 13.898438 -19.765625 13.84375 -18.554688 13.84375 -17.046875 C 13.84375 -16.878906 13.851562 -16.753906 13.875 -16.671875 L 13.84375 -16.625 C 13.3125 -16.78125 12.550781 -16.859375 11.5625 -16.859375 L 6.6875 -16.859375 L 6.6875 -12.921875 L 10.34375 -12.921875 C 11.476562 -12.921875 12.160156 -12.953125 12.390625 -13.015625 L 12.4375 -9.1875 C 11.9375 -9.238281 11.296875 -9.265625 10.515625 -9.265625 L 6.6875 -9.265625 L 6.6875 -3.703125 Z M 13 -3.703125 "/></g></g></g><g fill="#365b6d" fill-opacity="1"><g transform="translate(80.245953, 247.05199)"><g><path d="M 15.0625 -19.40625 L 14.765625 -14.859375 L 14.65625 -14.828125 C 13.894531 -15.972656 12.597656 -16.71875 10.765625 -17.0625 C 10.191406 -17.164062 9.640625 -17.21875 9.109375 -17.21875 C 8.578125 -17.21875 8.125 -17.171875 7.75 -17.078125 C 7.375 -16.992188 7.050781 -16.863281 6.78125 -16.6875 C 6.21875 -16.3125 5.9375 -15.828125 5.9375 -15.234375 C 5.9375 -14.453125 6.179688 -13.863281 6.671875 -13.46875 C 7.285156 -13 8.304688 -12.664062 9.734375 -12.46875 C 11.171875 -12.28125 12.320312 -12.019531 13.1875 -11.6875 C 14.050781 -11.363281 14.765625 -10.945312 15.328125 -10.4375 C 16.378906 -9.488281 16.90625 -8.148438 16.90625 -6.421875 C 16.90625 -4.160156 16.050781 -2.414062 14.34375 -1.1875 C 12.875 -0.132812 11.03125 0.390625 8.8125 0.390625 C 7.019531 0.390625 5.242188 0.046875 3.484375 -0.640625 C 2.910156 -0.859375 2.410156 -1.117188 1.984375 -1.421875 L 2.140625 -6.578125 L 2.203125 -6.625 C 3.484375 -4.425781 5.582031 -3.328125 8.5 -3.328125 C 10.570312 -3.328125 11.941406 -3.820312 12.609375 -4.8125 C 12.835938 -5.15625 12.953125 -5.535156 12.953125 -5.953125 C 12.953125 -6.367188 12.882812 -6.710938 12.75 -6.984375 C 12.613281 -7.265625 12.390625 -7.5 12.078125 -7.6875 C 11.484375 -8.082031 10.476562 -8.347656 9.0625 -8.484375 C 7.65625 -8.617188 6.503906 -8.867188 5.609375 -9.234375 C 4.710938 -9.609375 3.992188 -10.066406 3.453125 -10.609375 C 2.492188 -11.597656 2.015625 -12.976562 2.015625 -14.75 C 2.015625 -16.582031 2.65625 -18.066406 3.9375 -19.203125 C 5.25 -20.359375 7.015625 -20.9375 9.234375 -20.9375 C 11.453125 -20.9375 13.394531 -20.425781 15.0625 -19.40625 Z M 15.0625 -19.40625 "/></g></g></g><g fill="#365b6d" fill-opacity="1"><g transform="translate(103.108077, 247.05199)"><g><path d="M 11.859375 -20.9375 C 13.785156 -20.9375 15.429688 -20.601562 16.796875 -19.9375 L 16.796875 -15.203125 L 16.765625 -15.171875 C 16.179688 -16.054688 14.960938 -16.644531 13.109375 -16.9375 C 12.566406 -17.03125 11.878906 -17.078125 11.046875 -17.078125 C 10.210938 -17.078125 9.394531 -16.914062 8.59375 -16.59375 C 7.789062 -16.28125 7.128906 -15.835938 6.609375 -15.265625 C 5.609375 -14.140625 5.109375 -12.535156 5.109375 -10.453125 C 5.109375 -8.035156 5.742188 -6.234375 7.015625 -5.046875 C 8.066406 -4.054688 9.457031 -3.5625 11.1875 -3.5625 C 13.144531 -3.5625 14.726562 -3.976562 15.9375 -4.8125 C 16.382812 -5.113281 16.765625 -5.488281 17.078125 -5.9375 L 17.125 -5.90625 L 17.125 -1.578125 C 15.539062 -0.265625 13.414062 0.390625 10.75 0.390625 C 7.613281 0.390625 5.15625 -0.609375 3.375 -2.609375 C 1.65625 -4.515625 0.796875 -7.039062 0.796875 -10.1875 C 0.796875 -13.507812 1.734375 -16.128906 3.609375 -18.046875 C 5.503906 -19.972656 8.253906 -20.9375 11.859375 -20.9375 Z M 11.859375 -20.9375 "/></g></g></g><g fill="#365b6d" fill-opacity="1"><g transform="translate(125.892954, 247.05199)"><g><path d="M 14.375 -20.625 C 15.007812 -20.570312 15.535156 -20.546875 15.953125 -20.546875 L 17.234375 -20.546875 C 17.671875 -20.546875 18.125 -20.585938 18.59375 -20.671875 L 18.59375 -7.890625 C 18.59375 -5.359375 17.828125 -3.328125 16.296875 -1.796875 C 14.847656 -0.335938 13.023438 0.390625 10.828125 0.390625 C 8.429688 0.390625 6.488281 -0.234375 5 -1.484375 C 3.34375 -2.878906 2.515625 -4.898438 2.515625 -7.546875 L 2.515625 -20.625 C 3.367188 -20.570312 4.175781 -20.546875 4.9375 -20.546875 C 5.695312 -20.546875 6.320312 -20.585938 6.8125 -20.671875 L 6.8125 -7.34375 C 6.8125 -6.039062 7.207031 -5.03125 8 -4.3125 C 8.738281 -3.65625 9.664062 -3.328125 10.78125 -3.328125 C 12.425781 -3.328125 13.523438 -4.171875 14.078125 -5.859375 C 14.273438 -6.460938 14.375 -7.210938 14.375 -8.109375 Z M 14.375 -20.625 "/></g></g></g><g fill="#365b6d" fill-opacity="1"><g transform="translate(151.458744, 247.05199)"><g><path d="M 11.859375 -20.9375 C 13.785156 -20.9375 15.429688 -20.601562 16.796875 -19.9375 L 16.796875 -15.203125 L 16.765625 -15.171875 C 16.179688 -16.054688 14.960938 -16.644531 13.109375 -16.9375 C 12.566406 -17.03125 11.878906 -17.078125 11.046875 -17.078125 C 10.210938 -17.078125 9.394531 -16.914062 8.59375 -16.59375 C 7.789062 -16.28125 7.128906 -15.835938 6.609375 -15.265625 C 5.609375 -14.140625 5.109375 -12.535156 5.109375 -10.453125 C 5.109375 -8.035156 5.742188 -6.234375 7.015625 -5.046875 C 8.066406 -4.054688 9.457031 -3.5625 11.1875 -3.5625 C 13.144531 -3.5625 14.726562 -3.976562 15.9375 -4.8125 C 16.382812 -5.113281 16.765625 -5.488281 17.078125 -5.9375 L 17.125 -5.90625 L 17.125 -1.578125 C 15.539062 -0.265625 13.414062 0.390625 10.75 0.390625 C 7.613281 0.390625 5.15625 -0.609375 3.375 -2.609375 C 1.65625 -4.515625 0.796875 -7.039062 0.796875 -10.1875 C 0.796875 -13.507812 1.734375 -16.128906 3.609375 -18.046875 C 5.503906 -19.972656 8.253906 -20.9375 11.859375 -20.9375 Z M 11.859375 -20.9375 "/></g></g></g><g fill="#365b6d" fill-opacity="1"><g transform="translate(174.24362, 247.05199)"><g><path d="M 6.828125 0.09375 C 5.835938 0.03125 4.664062 0 3.3125 0 L 2.8125 0 L 2.8125 -20.625 C 3.445312 -20.570312 3.898438 -20.546875 4.171875 -20.546875 L 4.8125 -20.546875 C 5.625 -20.546875 6.296875 -20.585938 6.828125 -20.671875 L 6.828125 -12.4375 L 14.09375 -12.4375 L 14.09375 -20.625 C 14.945312 -20.570312 15.773438 -20.546875 16.578125 -20.546875 C 17.390625 -20.546875 17.898438 -20.585938 18.109375 -20.671875 L 18.109375 0.09375 C 17.609375 0.03125 16.628906 0 15.171875 0 L 14.09375 0 L 14.09375 -8.734375 L 6.828125 -8.734375 Z M 6.828125 0.09375 "/></g></g></g><g fill="#365b6d" fill-opacity="1"><g transform="translate(199.747612, 247.05199)"><g><path d="M 4.15625 0.125 C 3.269531 0.0390625 2.234375 0 1.046875 0 L -0.171875 0 L 6.546875 -18.828125 C 6.847656 -19.671875 7 -20.160156 7 -20.296875 C 7 -20.441406 6.992188 -20.53125 6.984375 -20.5625 L 7 -20.59375 C 7.664062 -20.5625 8.375 -20.546875 9.125 -20.546875 C 9.75 -20.546875 10.492188 -20.554688 11.359375 -20.578125 L 11.375 -20.546875 C 11.351562 -20.503906 11.34375 -20.445312 11.34375 -20.375 C 11.34375 -20.175781 11.492188 -19.65625 11.796875 -18.8125 L 18.65625 0.046875 C 18.457031 0.0351562 18.21875 0.03125 17.9375 0.03125 C 17.9375 0.03125 17.671875 0.0195312 17.140625 0 C 16.878906 0 16.644531 0 16.4375 0 L 14.046875 0 L 12.59375 -4.453125 L 5.609375 -4.453125 Z M 11.390625 -8.15625 L 9.046875 -15.34375 L 6.78125 -8.15625 Z M 11.390625 -8.15625 "/></g></g></g><g fill="#365b6d" fill-opacity="1"><g transform="translate(222.671534, 247.05199)"><g><path d="M 7.65625 0.390625 C 5.988281 0.390625 4.421875 0.253906 2.953125 -0.015625 L 2.953125 -20.6875 C 4.304688 -20.851562 5.878906 -20.9375 7.671875 -20.9375 C 9.472656 -20.9375 11.101562 -20.691406 12.5625 -20.203125 C 14.019531 -19.710938 15.238281 -19.015625 16.21875 -18.109375 C 18.195312 -16.296875 19.1875 -13.753906 19.1875 -10.484375 C 19.1875 -6.828125 18.082031 -4.050781 15.875 -2.15625 C 13.90625 -0.457031 11.164062 0.390625 7.65625 0.390625 Z M 6.96875 -3.390625 C 7.632812 -3.265625 8.300781 -3.203125 8.96875 -3.203125 C 9.644531 -3.203125 10.367188 -3.332031 11.140625 -3.59375 C 11.910156 -3.851562 12.578125 -4.257812 13.140625 -4.8125 C 14.359375 -5.988281 14.96875 -7.703125 14.96875 -9.953125 C 14.96875 -13.640625 13.625 -15.90625 10.9375 -16.75 C 10.050781 -17.03125 9.023438 -17.171875 7.859375 -17.171875 L 7.453125 -17.171875 C 7.296875 -17.171875 7.132812 -17.164062 6.96875 -17.15625 Z M 6.96875 -3.390625 "/></g></g></g><g fill="#365b6d" fill-opacity="1"><g transform="translate(248.175526, 247.05199)"><g><path d="M 13 -3.703125 C 13.632812 -3.703125 14.078125 -3.765625 14.328125 -3.890625 L 14.390625 -3.875 L 14.234375 0 L 2.65625 0 L 2.65625 -20.65625 C 2.9375 -20.632812 3.242188 -20.617188 3.578125 -20.609375 L 4.671875 -20.578125 C 5.390625 -20.554688 6.171875 -20.546875 7.015625 -20.546875 C 9.367188 -20.546875 11.703125 -20.585938 14.015625 -20.671875 C 13.898438 -19.765625 13.84375 -18.554688 13.84375 -17.046875 C 13.84375 -16.878906 13.851562 -16.753906 13.875 -16.671875 L 13.84375 -16.625 C 13.3125 -16.78125 12.550781 -16.859375 11.5625 -16.859375 L 6.6875 -16.859375 L 6.6875 -12.921875 L 10.34375 -12.921875 C 11.476562 -12.921875 12.160156 -12.953125 12.390625 -13.015625 L 12.4375 -9.1875 C 11.9375 -9.238281 11.296875 -9.265625 10.515625 -9.265625 L 6.6875 -9.265625 L 6.6875 -3.703125 Z M 13 -3.703125 "/></g></g></g><g fill="#365b6d" fill-opacity="1"><g transform="translate(268.457569, 247.05199)"><g><path d="M 9.296875 -7.984375 C 8.992188 -7.960938 8.664062 -7.953125 8.3125 -7.953125 C 7.957031 -7.953125 7.4375 -7.976562 6.75 -8.03125 L 6.75 0 L 2.65625 0 L 2.65625 -20.65625 C 4.09375 -20.84375 5.863281 -20.9375 7.96875 -20.9375 C 10.832031 -20.9375 12.96875 -20.40625 14.375 -19.34375 C 15.78125 -18.289062 16.484375 -16.660156 16.484375 -14.453125 C 16.484375 -12.742188 15.835938 -11.285156 14.546875 -10.078125 C 14.128906 -9.679688 13.644531 -9.335938 13.09375 -9.046875 L 16.25 -2.40625 C 16.875 -1.039062 17.347656 -0.226562 17.671875 0.03125 L 17.59375 0.109375 C 16.59375 -0.0546875 15.023438 -0.0507812 12.890625 0.125 Z M 8.265625 -17.28125 C 7.742188 -17.28125 7.238281 -17.253906 6.75 -17.203125 L 6.75 -11.3125 C 7.257812 -11.238281 7.851562 -11.203125 8.53125 -11.203125 C 9.207031 -11.203125 9.773438 -11.257812 10.234375 -11.375 C 10.703125 -11.5 11.109375 -11.679688 11.453125 -11.921875 C 12.179688 -12.472656 12.546875 -13.289062 12.546875 -14.375 C 12.546875 -15.46875 12.164062 -16.238281 11.40625 -16.6875 C 10.6875 -17.082031 9.640625 -17.28125 8.265625 -17.28125 Z M 8.265625 -17.28125 "/></g></g></g><g fill="#365b6d" fill-opacity="1"><g transform="translate(291.319704, 247.05199)"><g><path d="M 4.34375 -2.4375 C 3.40625 -3.332031 2.664062 -4.410156 2.125 -5.671875 C 1.582031 -6.929688 1.3125 -8.304688 1.3125 -9.796875 C 1.3125 -11.296875 1.5625 -12.710938 2.0625 -14.046875 C 2.570312 -15.390625 3.296875 -16.570312 4.234375 -17.59375 C 5.171875 -18.613281 6.300781 -19.425781 7.625 -20.03125 C 8.957031 -20.632812 10.445312 -20.9375 12.09375 -20.9375 C 14.9375 -20.9375 17.332031 -20.039062 19.28125 -18.25 C 21.363281 -16.332031 22.40625 -13.742188 22.40625 -10.484375 C 22.40625 -7.335938 21.332031 -4.71875 19.1875 -2.625 C 17.863281 -1.332031 16.289062 -0.445312 14.46875 0.03125 C 13.570312 0.269531 12.523438 0.390625 11.328125 0.390625 C 10.128906 0.390625 8.898438 0.144531 7.640625 -0.34375 C 6.378906 -0.84375 5.28125 -1.539062 4.34375 -2.4375 Z M 5.609375 -10.015625 C 5.609375 -9.054688 5.765625 -8.175781 6.078125 -7.375 C 6.398438 -6.570312 6.847656 -5.878906 7.421875 -5.296875 C 8.617188 -4.078125 10.164062 -3.46875 12.0625 -3.46875 C 13.863281 -3.46875 15.3125 -4.050781 16.40625 -5.21875 C 17.519531 -6.425781 18.078125 -8.070312 18.078125 -10.15625 C 18.078125 -12.101562 17.546875 -13.734375 16.484375 -15.046875 C 15.335938 -16.453125 13.769531 -17.15625 11.78125 -17.15625 C 9.863281 -17.15625 8.335938 -16.441406 7.203125 -15.015625 C 6.140625 -13.691406 5.609375 -12.023438 5.609375 -10.015625 Z M 5.609375 -10.015625 "/></g></g></g><g fill="#365b6d" fill-opacity="1"><g transform="translate(124.328646, 265.486389)"><g><path d="M 3.34375 -6.5 C 3.695312 -6.5 4 -6.445312 4.25 -6.34375 C 4.507812 -6.238281 4.757812 -6.09375 5 -5.90625 C 5.0625 -5.851562 5.117188 -5.828125 5.171875 -5.828125 C 5.285156 -5.828125 5.363281 -6.007812 5.40625 -6.375 L 5.609375 -6.375 C 5.585938 -5.976562 5.578125 -5.285156 5.578125 -4.296875 L 5.359375 -4.296875 C 5.296875 -4.691406 5.238281 -4.972656 5.1875 -5.140625 C 5.132812 -5.316406 5.039062 -5.484375 4.90625 -5.640625 C 4.726562 -5.867188 4.5 -6.039062 4.21875 -6.15625 C 3.945312 -6.28125 3.648438 -6.34375 3.328125 -6.34375 C 2.929688 -6.34375 2.585938 -6.210938 2.296875 -5.953125 C 2.003906 -5.691406 1.773438 -5.320312 1.609375 -4.84375 C 1.453125 -4.363281 1.375 -3.804688 1.375 -3.171875 C 1.375 -2.515625 1.460938 -1.953125 1.640625 -1.484375 C 1.816406 -1.015625 2.054688 -0.65625 2.359375 -0.40625 C 2.671875 -0.164062 3.019531 -0.046875 3.40625 -0.046875 C 3.707031 -0.046875 4 -0.101562 4.28125 -0.21875 C 4.5625 -0.332031 4.785156 -0.503906 4.953125 -0.734375 C 5.066406 -0.898438 5.148438 -1.078125 5.203125 -1.265625 C 5.265625 -1.460938 5.316406 -1.757812 5.359375 -2.15625 L 5.578125 -2.15625 C 5.578125 -1.125 5.585938 -0.40625 5.609375 0 L 5.40625 0 C 5.382812 -0.1875 5.359375 -0.320312 5.328125 -0.40625 C 5.296875 -0.488281 5.25 -0.53125 5.1875 -0.53125 C 5.132812 -0.53125 5.070312 -0.503906 5 -0.453125 C 4.726562 -0.265625 4.46875 -0.117188 4.21875 -0.015625 C 3.976562 0.078125 3.679688 0.125 3.328125 0.125 C 2.753906 0.125 2.253906 0 1.828125 -0.25 C 1.398438 -0.507812 1.066406 -0.882812 0.828125 -1.375 C 0.597656 -1.863281 0.484375 -2.445312 0.484375 -3.125 C 0.484375 -3.789062 0.601562 -4.378906 0.84375 -4.890625 C 1.082031 -5.398438 1.421875 -5.796875 1.859375 -6.078125 C 2.296875 -6.359375 2.789062 -6.5 3.34375 -6.5 Z M 3.34375 -6.5 "/></g></g></g><g fill="#365b6d" fill-opacity="1"><g transform="translate(133.033698, 265.486389)"><g><path d="M 3.34375 -6.5 C 3.90625 -6.5 4.398438 -6.367188 4.828125 -6.109375 C 5.265625 -5.847656 5.597656 -5.472656 5.828125 -4.984375 C 6.066406 -4.492188 6.1875 -3.910156 6.1875 -3.234375 C 6.1875 -2.578125 6.066406 -1.992188 5.828125 -1.484375 C 5.585938 -0.972656 5.25 -0.578125 4.8125 -0.296875 C 4.375 -0.015625 3.878906 0.125 3.328125 0.125 C 2.753906 0.125 2.253906 0 1.828125 -0.25 C 1.398438 -0.507812 1.066406 -0.882812 0.828125 -1.375 C 0.597656 -1.863281 0.484375 -2.445312 0.484375 -3.125 C 0.484375 -3.789062 0.601562 -4.378906 0.84375 -4.890625 C 1.082031 -5.398438 1.421875 -5.796875 1.859375 -6.078125 C 2.296875 -6.359375 2.789062 -6.5 3.34375 -6.5 Z M 3.296875 -6.34375 C 2.921875 -6.34375 2.585938 -6.207031 2.296875 -5.9375 C 2.003906 -5.664062 1.773438 -5.289062 1.609375 -4.8125 C 1.453125 -4.332031 1.375 -3.785156 1.375 -3.171875 C 1.375 -2.546875 1.460938 -1.992188 1.640625 -1.515625 C 1.816406 -1.046875 2.054688 -0.679688 2.359375 -0.421875 C 2.660156 -0.160156 2.992188 -0.03125 3.359375 -0.03125 C 3.742188 -0.03125 4.082031 -0.164062 4.375 -0.4375 C 4.664062 -0.707031 4.890625 -1.082031 5.046875 -1.5625 C 5.210938 -2.039062 5.296875 -2.585938 5.296875 -3.203125 C 5.296875 -3.828125 5.207031 -4.375 5.03125 -4.84375 C 4.851562 -5.320312 4.613281 -5.691406 4.3125 -5.953125 C 4.007812 -6.210938 3.671875 -6.34375 3.296875 -6.34375 Z M 3.296875 -6.34375 "/></g></g></g><g fill="#365b6d" fill-opacity="1"><g transform="translate(142.21575, 265.486389)"><g><path d="M 6.03125 -6.1875 C 5.820312 -6.175781 5.664062 -6.144531 5.5625 -6.09375 C 5.457031 -6.039062 5.382812 -5.957031 5.34375 -5.84375 C 5.3125 -5.726562 5.296875 -5.554688 5.296875 -5.328125 L 5.296875 0.046875 L 5.09375 0.046875 L 1.3125 -5.796875 L 1.3125 -1.046875 C 1.3125 -0.804688 1.332031 -0.628906 1.375 -0.515625 C 1.414062 -0.398438 1.488281 -0.316406 1.59375 -0.265625 C 1.707031 -0.222656 1.890625 -0.195312 2.140625 -0.1875 L 2.140625 0 C 1.921875 -0.0195312 1.613281 -0.03125 1.21875 -0.03125 C 0.851562 -0.03125 0.570312 -0.0195312 0.375 0 L 0.375 -0.1875 C 0.582031 -0.195312 0.738281 -0.222656 0.84375 -0.265625 C 0.945312 -0.316406 1.015625 -0.398438 1.046875 -0.515625 C 1.085938 -0.640625 1.109375 -0.816406 1.109375 -1.046875 L 1.109375 -5.421875 C 1.109375 -5.648438 1.085938 -5.8125 1.046875 -5.90625 C 1.015625 -6.007812 0.945312 -6.078125 0.84375 -6.109375 C 0.75 -6.148438 0.59375 -6.175781 0.375 -6.1875 L 0.375 -6.375 C 0.570312 -6.351562 0.851562 -6.34375 1.21875 -6.34375 C 1.488281 -6.34375 1.722656 -6.351562 1.921875 -6.375 L 5.09375 -1.46875 L 5.09375 -5.328125 C 5.09375 -5.554688 5.070312 -5.726562 5.03125 -5.84375 C 5 -5.957031 4.925781 -6.039062 4.8125 -6.09375 C 4.695312 -6.144531 4.519531 -6.175781 4.28125 -6.1875 L 4.28125 -6.375 C 4.488281 -6.351562 4.789062 -6.34375 5.1875 -6.34375 C 5.550781 -6.34375 5.832031 -6.351562 6.03125 -6.375 Z M 6.03125 -6.1875 "/></g></g></g><g fill="#365b6d" fill-opacity="1"><g transform="translate(151.082805, 265.486389)"><g><path d="M 4.984375 -1.15625 C 4.984375 -0.8125 5.003906 -0.425781 5.046875 0 C 4.640625 -0.0195312 3.953125 -0.03125 2.984375 -0.03125 C 1.835938 -0.03125 0.96875 -0.0195312 0.375 0 L 0.375 -0.1875 C 0.59375 -0.195312 0.75 -0.21875 0.84375 -0.25 C 0.945312 -0.289062 1.015625 -0.359375 1.046875 -0.453125 C 1.085938 -0.554688 1.109375 -0.722656 1.109375 -0.953125 L 1.109375 -5.421875 C 1.109375 -5.648438 1.085938 -5.8125 1.046875 -5.90625 C 1.015625 -6.007812 0.945312 -6.078125 0.84375 -6.109375 C 0.75 -6.148438 0.59375 -6.175781 0.375 -6.1875 L 0.375 -6.375 C 0.96875 -6.351562 1.835938 -6.34375 2.984375 -6.34375 C 3.867188 -6.34375 4.5 -6.351562 4.875 -6.375 C 4.832031 -5.976562 4.8125 -5.625 4.8125 -5.3125 C 4.8125 -5.070312 4.816406 -4.882812 4.828125 -4.75 L 4.625 -4.75 C 4.582031 -5.144531 4.523438 -5.4375 4.453125 -5.625 C 4.390625 -5.8125 4.28125 -5.945312 4.125 -6.03125 C 3.96875 -6.125 3.734375 -6.171875 3.421875 -6.171875 L 2.671875 -6.171875 C 2.453125 -6.171875 2.289062 -6.148438 2.1875 -6.109375 C 2.09375 -6.078125 2.023438 -6.007812 1.984375 -5.90625 C 1.953125 -5.8125 1.9375 -5.648438 1.9375 -5.421875 L 1.9375 -3.296875 L 2.53125 -3.296875 C 2.75 -3.296875 2.910156 -3.34375 3.015625 -3.4375 C 3.128906 -3.539062 3.207031 -3.660156 3.25 -3.796875 C 3.289062 -3.929688 3.320312 -4.097656 3.34375 -4.296875 L 3.375 -4.484375 L 3.578125 -4.484375 C 3.566406 -4.234375 3.5625 -3.953125 3.5625 -3.640625 L 3.5625 -3.203125 C 3.5625 -2.898438 3.578125 -2.472656 3.609375 -1.921875 L 3.40625 -1.921875 C 3.394531 -1.960938 3.375 -2.109375 3.34375 -2.359375 C 3.3125 -2.609375 3.226562 -2.796875 3.09375 -2.921875 C 2.957031 -3.046875 2.769531 -3.109375 2.53125 -3.109375 L 1.9375 -3.109375 L 1.9375 -0.953125 C 1.9375 -0.722656 1.953125 -0.554688 1.984375 -0.453125 C 2.023438 -0.359375 2.09375 -0.289062 2.1875 -0.25 C 2.289062 -0.21875 2.453125 -0.203125 2.671875 -0.203125 L 3.328125 -0.203125 C 3.703125 -0.203125 3.984375 -0.25 4.171875 -0.34375 C 4.367188 -0.445312 4.515625 -0.609375 4.609375 -0.828125 C 4.703125 -1.046875 4.769531 -1.367188 4.8125 -1.796875 L 5.015625 -1.796875 C 4.992188 -1.640625 4.984375 -1.425781 4.984375 -1.15625 Z M 3.71875 -8.328125 C 3.8125 -8.390625 3.898438 -8.421875 3.984375 -8.421875 C 4.097656 -8.421875 4.191406 -8.367188 4.265625 -8.265625 C 4.296875 -8.210938 4.3125 -8.15625 4.3125 -8.09375 C 4.3125 -7.96875 4.234375 -7.851562 4.078125 -7.75 C 3.953125 -7.664062 3.734375 -7.570312 3.421875 -7.46875 C 2.972656 -7.28125 2.585938 -7.109375 2.265625 -6.953125 L 2.203125 -7.0625 C 2.453125 -7.25 2.664062 -7.421875 2.84375 -7.578125 C 3.019531 -7.742188 3.128906 -7.84375 3.171875 -7.875 C 3.390625 -8.082031 3.570312 -8.234375 3.71875 -8.328125 Z M 3.71875 -8.328125 "/></g></g></g><g fill="#365b6d" fill-opacity="1"><g transform="translate(159.076846, 265.486389)"><g><path d="M 3.34375 -6.5 C 3.695312 -6.5 4 -6.445312 4.25 -6.34375 C 4.507812 -6.238281 4.757812 -6.09375 5 -5.90625 C 5.0625 -5.851562 5.117188 -5.828125 5.171875 -5.828125 C 5.285156 -5.828125 5.363281 -6.007812 5.40625 -6.375 L 5.609375 -6.375 C 5.585938 -5.976562 5.578125 -5.285156 5.578125 -4.296875 L 5.359375 -4.296875 C 5.296875 -4.691406 5.238281 -4.972656 5.1875 -5.140625 C 5.132812 -5.316406 5.039062 -5.484375 4.90625 -5.640625 C 4.726562 -5.867188 4.5 -6.039062 4.21875 -6.15625 C 3.945312 -6.28125 3.648438 -6.34375 3.328125 -6.34375 C 2.929688 -6.34375 2.585938 -6.210938 2.296875 -5.953125 C 2.003906 -5.691406 1.773438 -5.320312 1.609375 -4.84375 C 1.453125 -4.363281 1.375 -3.804688 1.375 -3.171875 C 1.375 -2.515625 1.460938 -1.953125 1.640625 -1.484375 C 1.816406 -1.015625 2.054688 -0.65625 2.359375 -0.40625 C 2.671875 -0.164062 3.019531 -0.046875 3.40625 -0.046875 C 3.707031 -0.046875 4 -0.101562 4.28125 -0.21875 C 4.5625 -0.332031 4.785156 -0.503906 4.953125 -0.734375 C 5.066406 -0.898438 5.148438 -1.078125 5.203125 -1.265625 C 5.265625 -1.460938 5.316406 -1.757812 5.359375 -2.15625 L 5.578125 -2.15625 C 5.578125 -1.125 5.585938 -0.40625 5.609375 0 L 5.40625 0 C 5.382812 -0.1875 5.359375 -0.320312 5.328125 -0.40625 C 5.296875 -0.488281 5.25 -0.53125 5.1875 -0.53125 C 5.132812 -0.53125 5.070312 -0.503906 5 -0.453125 C 4.726562 -0.265625 4.46875 -0.117188 4.21875 -0.015625 C 3.976562 0.078125 3.679688 0.125 3.328125 0.125 C 2.753906 0.125 2.253906 0 1.828125 -0.25 C 1.398438 -0.507812 1.066406 -0.882812 0.828125 -1.375 C 0.597656 -1.863281 0.484375 -2.445312 0.484375 -3.125 C 0.484375 -3.789062 0.601562 -4.378906 0.84375 -4.890625 C 1.082031 -5.398438 1.421875 -5.796875 1.859375 -6.078125 C 2.296875 -6.359375 2.789062 -6.5 3.34375 -6.5 Z M 3.34375 -6.5 "/></g></g></g><g fill="#365b6d" fill-opacity="1"><g transform="translate(167.781897, 265.486389)"><g><path d="M 5.328125 -6.375 C 5.285156 -5.945312 5.265625 -5.5625 5.265625 -5.21875 C 5.265625 -4.914062 5.273438 -4.671875 5.296875 -4.484375 L 5.078125 -4.484375 C 5.035156 -4.941406 4.976562 -5.28125 4.90625 -5.5 C 4.832031 -5.726562 4.703125 -5.894531 4.515625 -6 C 4.335938 -6.113281 4.066406 -6.171875 3.703125 -6.171875 L 3.21875 -6.171875 L 3.21875 -1.046875 C 3.21875 -0.796875 3.238281 -0.613281 3.28125 -0.5 C 3.332031 -0.382812 3.414062 -0.304688 3.53125 -0.265625 C 3.65625 -0.222656 3.851562 -0.195312 4.125 -0.1875 L 4.125 0 C 3.8125 -0.0195312 3.367188 -0.03125 2.796875 -0.03125 C 2.203125 -0.03125 1.757812 -0.0195312 1.46875 0 L 1.46875 -0.1875 C 1.738281 -0.195312 1.929688 -0.222656 2.046875 -0.265625 C 2.171875 -0.304688 2.253906 -0.382812 2.296875 -0.5 C 2.347656 -0.613281 2.375 -0.796875 2.375 -1.046875 L 2.375 -6.171875 L 1.890625 -6.171875 C 1.515625 -6.171875 1.238281 -6.113281 1.0625 -6 C 0.882812 -5.894531 0.757812 -5.726562 0.6875 -5.5 C 0.613281 -5.28125 0.550781 -4.941406 0.5 -4.484375 L 0.296875 -4.484375 C 0.316406 -4.671875 0.328125 -4.914062 0.328125 -5.21875 C 0.328125 -5.5625 0.304688 -5.945312 0.265625 -6.375 C 0.765625 -6.351562 1.609375 -6.34375 2.796875 -6.34375 C 3.984375 -6.34375 4.828125 -6.351562 5.328125 -6.375 Z M 5.328125 -6.375 "/></g></g></g><g fill="#365b6d" fill-opacity="1"><g transform="translate(175.88395, 265.486389)"><g><path d="M 5.109375 -0.75 C 5.242188 -0.382812 5.445312 -0.195312 5.71875 -0.1875 L 5.71875 0 C 5.476562 -0.0195312 5.160156 -0.03125 4.765625 -0.03125 C 4.242188 -0.03125 3.859375 -0.0195312 3.609375 0 L 3.609375 -0.1875 C 3.835938 -0.195312 4 -0.222656 4.09375 -0.265625 C 4.195312 -0.304688 4.25 -0.390625 4.25 -0.515625 C 4.25 -0.617188 4.210938 -0.757812 4.140625 -0.9375 L 3.59375 -2.40625 L 1.40625 -2.40625 L 1.046875 -1.453125 C 0.921875 -1.128906 0.859375 -0.882812 0.859375 -0.71875 C 0.859375 -0.53125 0.921875 -0.394531 1.046875 -0.3125 C 1.179688 -0.226562 1.378906 -0.1875 1.640625 -0.1875 L 1.640625 0 C 1.304688 -0.0195312 0.960938 -0.03125 0.609375 -0.03125 C 0.335938 -0.03125 0.113281 -0.0195312 -0.0625 0 L -0.0625 -0.1875 C 0.238281 -0.25 0.472656 -0.507812 0.640625 -0.96875 L 2.765625 -6.421875 L 2.90625 -6.421875 Z M 3.515625 -2.59375 L 2.515625 -5.28125 L 1.484375 -2.59375 Z M 3.515625 -2.59375 "/></g></g></g><g fill="#365b6d" fill-opacity="1"><g transform="translate(184.067002, 265.486389)"><g><path d="M 5.328125 -6.375 C 5.285156 -5.945312 5.265625 -5.5625 5.265625 -5.21875 C 5.265625 -4.914062 5.273438 -4.671875 5.296875 -4.484375 L 5.078125 -4.484375 C 5.035156 -4.941406 4.976562 -5.28125 4.90625 -5.5 C 4.832031 -5.726562 4.703125 -5.894531 4.515625 -6 C 4.335938 -6.113281 4.066406 -6.171875 3.703125 -6.171875 L 3.21875 -6.171875 L 3.21875 -1.046875 C 3.21875 -0.796875 3.238281 -0.613281 3.28125 -0.5 C 3.332031 -0.382812 3.414062 -0.304688 3.53125 -0.265625 C 3.65625 -0.222656 3.851562 -0.195312 4.125 -0.1875 L 4.125 0 C 3.8125 -0.0195312 3.367188 -0.03125 2.796875 -0.03125 C 2.203125 -0.03125 1.757812 -0.0195312 1.46875 0 L 1.46875 -0.1875 C 1.738281 -0.195312 1.929688 -0.222656 2.046875 -0.265625 C 2.171875 -0.304688 2.253906 -0.382812 2.296875 -0.5 C 2.347656 -0.613281 2.375 -0.796875 2.375 -1.046875 L 2.375 -6.171875 L 1.890625 -6.171875 C 1.515625 -6.171875 1.238281 -6.113281 1.0625 -6 C 0.882812 -5.894531 0.757812 -5.726562 0.6875 -5.5 C 0.613281 -5.28125 0.550781 -4.941406 0.5 -4.484375 L 0.296875 -4.484375 C 0.316406 -4.671875 0.328125 -4.914062 0.328125 -5.21875 C 0.328125 -5.5625 0.304688 -5.945312 0.265625 -6.375 C 0.765625 -6.351562 1.609375 -6.34375 2.796875 -6.34375 C 3.984375 -6.34375 4.828125 -6.351562 5.328125 -6.375 Z M 5.328125 -6.375 "/></g></g></g><g fill="#365b6d" fill-opacity="1"><g transform="translate(192.169052, 265.486389)"><g><path d="M 4.984375 -1.15625 C 4.984375 -0.8125 5.003906 -0.425781 5.046875 0 C 4.640625 -0.0195312 3.953125 -0.03125 2.984375 -0.03125 C 1.835938 -0.03125 0.96875 -0.0195312 0.375 0 L 0.375 -0.1875 C 0.59375 -0.195312 0.75 -0.21875 0.84375 -0.25 C 0.945312 -0.289062 1.015625 -0.359375 1.046875 -0.453125 C 1.085938 -0.554688 1.109375 -0.722656 1.109375 -0.953125 L 1.109375 -5.421875 C 1.109375 -5.648438 1.085938 -5.8125 1.046875 -5.90625 C 1.015625 -6.007812 0.945312 -6.078125 0.84375 -6.109375 C 0.75 -6.148438 0.59375 -6.175781 0.375 -6.1875 L 0.375 -6.375 C 0.96875 -6.351562 1.835938 -6.34375 2.984375 -6.34375 C 3.867188 -6.34375 4.5 -6.351562 4.875 -6.375 C 4.832031 -5.976562 4.8125 -5.625 4.8125 -5.3125 C 4.8125 -5.070312 4.816406 -4.882812 4.828125 -4.75 L 4.625 -4.75 C 4.582031 -5.144531 4.523438 -5.4375 4.453125 -5.625 C 4.390625 -5.8125 4.28125 -5.945312 4.125 -6.03125 C 3.96875 -6.125 3.734375 -6.171875 3.421875 -6.171875 L 2.671875 -6.171875 C 2.453125 -6.171875 2.289062 -6.148438 2.1875 -6.109375 C 2.09375 -6.078125 2.023438 -6.007812 1.984375 -5.90625 C 1.953125 -5.8125 1.9375 -5.648438 1.9375 -5.421875 L 1.9375 -3.296875 L 2.53125 -3.296875 C 2.75 -3.296875 2.910156 -3.34375 3.015625 -3.4375 C 3.128906 -3.539062 3.207031 -3.660156 3.25 -3.796875 C 3.289062 -3.929688 3.320312 -4.097656 3.34375 -4.296875 L 3.375 -4.484375 L 3.578125 -4.484375 C 3.566406 -4.234375 3.5625 -3.953125 3.5625 -3.640625 L 3.5625 -3.203125 C 3.5625 -2.898438 3.578125 -2.472656 3.609375 -1.921875 L 3.40625 -1.921875 C 3.394531 -1.960938 3.375 -2.109375 3.34375 -2.359375 C 3.3125 -2.609375 3.226562 -2.796875 3.09375 -2.921875 C 2.957031 -3.046875 2.769531 -3.109375 2.53125 -3.109375 L 1.9375 -3.109375 L 1.9375 -0.953125 C 1.9375 -0.722656 1.953125 -0.554688 1.984375 -0.453125 C 2.023438 -0.359375 2.09375 -0.289062 2.1875 -0.25 C 2.289062 -0.21875 2.453125 -0.203125 2.671875 -0.203125 L 3.328125 -0.203125 C 3.703125 -0.203125 3.984375 -0.25 4.171875 -0.34375 C 4.367188 -0.445312 4.515625 -0.609375 4.609375 -0.828125 C 4.703125 -1.046875 4.769531 -1.367188 4.8125 -1.796875 L 5.015625 -1.796875 C 4.992188 -1.640625 4.984375 -1.425781 4.984375 -1.15625 Z M 4.984375 -1.15625 "/></g></g></g><g fill="#365b6d" fill-opacity="1"><g transform="translate(200.163093, 265.486389)"><g/></g></g><g fill="#365b6d" fill-opacity="1"><g transform="translate(204.917117, 265.486389)"><g><path d="M 3.34375 -6.5 C 3.695312 -6.5 4 -6.445312 4.25 -6.34375 C 4.507812 -6.238281 4.757812 -6.09375 5 -5.90625 C 5.0625 -5.851562 5.117188 -5.828125 5.171875 -5.828125 C 5.285156 -5.828125 5.363281 -6.007812 5.40625 -6.375 L 5.609375 -6.375 C 5.585938 -5.976562 5.578125 -5.285156 5.578125 -4.296875 L 5.359375 -4.296875 C 5.296875 -4.691406 5.238281 -4.972656 5.1875 -5.140625 C 5.132812 -5.316406 5.039062 -5.484375 4.90625 -5.640625 C 4.726562 -5.867188 4.5 -6.039062 4.21875 -6.15625 C 3.945312 -6.28125 3.648438 -6.34375 3.328125 -6.34375 C 2.929688 -6.34375 2.585938 -6.210938 2.296875 -5.953125 C 2.003906 -5.691406 1.773438 -5.320312 1.609375 -4.84375 C 1.453125 -4.363281 1.375 -3.804688 1.375 -3.171875 C 1.375 -2.515625 1.460938 -1.953125 1.640625 -1.484375 C 1.816406 -1.015625 2.054688 -0.65625 2.359375 -0.40625 C 2.671875 -0.164062 3.019531 -0.046875 3.40625 -0.046875 C 3.707031 -0.046875 4 -0.101562 4.28125 -0.21875 C 4.5625 -0.332031 4.785156 -0.503906 4.953125 -0.734375 C 5.066406 -0.898438 5.148438 -1.078125 5.203125 -1.265625 C 5.265625 -1.460938 5.316406 -1.757812 5.359375 -2.15625 L 5.578125 -2.15625 C 5.578125 -1.125 5.585938 -0.40625 5.609375 0 L 5.40625 0 C 5.382812 -0.1875 5.359375 -0.320312 5.328125 -0.40625 C 5.296875 -0.488281 5.25 -0.53125 5.1875 -0.53125 C 5.132812 -0.53125 5.070312 -0.503906 5 -0.453125 C 4.726562 -0.265625 4.46875 -0.117188 4.21875 -0.015625 C 3.976562 0.078125 3.679688 0.125 3.328125 0.125 C 2.753906 0.125 2.253906 0 1.828125 -0.25 C 1.398438 -0.507812 1.066406 -0.882812 0.828125 -1.375 C 0.597656 -1.863281 0.484375 -2.445312 0.484375 -3.125 C 0.484375 -3.789062 0.601562 -4.378906 0.84375 -4.890625 C 1.082031 -5.398438 1.421875 -5.796875 1.859375 -6.078125 C 2.296875 -6.359375 2.789062 -6.5 3.34375 -6.5 Z M 3.34375 -6.5 "/></g></g></g><g fill="#365b6d" fill-opacity="1"><g transform="translate(213.622168, 265.486389)"><g><path d="M 3.34375 -6.5 C 3.90625 -6.5 4.398438 -6.367188 4.828125 -6.109375 C 5.265625 -5.847656 5.597656 -5.472656 5.828125 -4.984375 C 6.066406 -4.492188 6.1875 -3.910156 6.1875 -3.234375 C 6.1875 -2.578125 6.066406 -1.992188 5.828125 -1.484375 C 5.585938 -0.972656 5.25 -0.578125 4.8125 -0.296875 C 4.375 -0.015625 3.878906 0.125 3.328125 0.125 C 2.753906 0.125 2.253906 0 1.828125 -0.25 C 1.398438 -0.507812 1.066406 -0.882812 0.828125 -1.375 C 0.597656 -1.863281 0.484375 -2.445312 0.484375 -3.125 C 0.484375 -3.789062 0.601562 -4.378906 0.84375 -4.890625 C 1.082031 -5.398438 1.421875 -5.796875 1.859375 -6.078125 C 2.296875 -6.359375 2.789062 -6.5 3.34375 -6.5 Z M 3.296875 -6.34375 C 2.921875 -6.34375 2.585938 -6.207031 2.296875 -5.9375 C 2.003906 -5.664062 1.773438 -5.289062 1.609375 -4.8125 C 1.453125 -4.332031 1.375 -3.785156 1.375 -3.171875 C 1.375 -2.546875 1.460938 -1.992188 1.640625 -1.515625 C 1.816406 -1.046875 2.054688 -0.679688 2.359375 -0.421875 C 2.660156 -0.160156 2.992188 -0.03125 3.359375 -0.03125 C 3.742188 -0.03125 4.082031 -0.164062 4.375 -0.4375 C 4.664062 -0.707031 4.890625 -1.082031 5.046875 -1.5625 C 5.210938 -2.039062 5.296875 -2.585938 5.296875 -3.203125 C 5.296875 -3.828125 5.207031 -4.375 5.03125 -4.84375 C 4.851562 -5.320312 4.613281 -5.691406 4.3125 -5.953125 C 4.007812 -6.210938 3.671875 -6.34375 3.296875 -6.34375 Z M 3.296875 -6.34375 "/></g></g></g><g fill="#365b6d" fill-opacity="1"><g transform="translate(222.804226, 265.486389)"><g><path d="M 6.03125 -6.1875 C 5.820312 -6.175781 5.664062 -6.144531 5.5625 -6.09375 C 5.457031 -6.039062 5.382812 -5.957031 5.34375 -5.84375 C 5.3125 -5.726562 5.296875 -5.554688 5.296875 -5.328125 L 5.296875 0.046875 L 5.09375 0.046875 L 1.3125 -5.796875 L 1.3125 -1.046875 C 1.3125 -0.804688 1.332031 -0.628906 1.375 -0.515625 C 1.414062 -0.398438 1.488281 -0.316406 1.59375 -0.265625 C 1.707031 -0.222656 1.890625 -0.195312 2.140625 -0.1875 L 2.140625 0 C 1.921875 -0.0195312 1.613281 -0.03125 1.21875 -0.03125 C 0.851562 -0.03125 0.570312 -0.0195312 0.375 0 L 0.375 -0.1875 C 0.582031 -0.195312 0.738281 -0.222656 0.84375 -0.265625 C 0.945312 -0.316406 1.015625 -0.398438 1.046875 -0.515625 C 1.085938 -0.640625 1.109375 -0.816406 1.109375 -1.046875 L 1.109375 -5.421875 C 1.109375 -5.648438 1.085938 -5.8125 1.046875 -5.90625 C 1.015625 -6.007812 0.945312 -6.078125 0.84375 -6.109375 C 0.75 -6.148438 0.59375 -6.175781 0.375 -6.1875 L 0.375 -6.375 C 0.570312 -6.351562 0.851562 -6.34375 1.21875 -6.34375 C 1.488281 -6.34375 1.722656 -6.351562 1.921875 -6.375 L 5.09375 -1.46875 L 5.09375 -5.328125 C 5.09375 -5.554688 5.070312 -5.726562 5.03125 -5.84375 C 5 -5.957031 4.925781 -6.039062 4.8125 -6.09375 C 4.695312 -6.144531 4.519531 -6.175781 4.28125 -6.1875 L 4.28125 -6.375 C 4.488281 -6.351562 4.789062 -6.34375 5.1875 -6.34375 C 5.550781 -6.34375 5.832031 -6.351562 6.03125 -6.375 Z M 6.03125 -6.1875 "/></g></g></g><g fill="#365b6d" fill-opacity="1"><g transform="translate(231.671279, 265.486389)"><g/></g></g><g fill="#365b6d" fill-opacity="1"><g transform="translate(236.425303, 265.486389)"><g><path d="M 5.328125 -6.375 C 5.285156 -5.945312 5.265625 -5.5625 5.265625 -5.21875 C 5.265625 -4.914062 5.273438 -4.671875 5.296875 -4.484375 L 5.078125 -4.484375 C 5.035156 -4.941406 4.976562 -5.28125 4.90625 -5.5 C 4.832031 -5.726562 4.703125 -5.894531 4.515625 -6 C 4.335938 -6.113281 4.066406 -6.171875 3.703125 -6.171875 L 3.21875 -6.171875 L 3.21875 -1.046875 C 3.21875 -0.796875 3.238281 -0.613281 3.28125 -0.5 C 3.332031 -0.382812 3.414062 -0.304688 3.53125 -0.265625 C 3.65625 -0.222656 3.851562 -0.195312 4.125 -0.1875 L 4.125 0 C 3.8125 -0.0195312 3.367188 -0.03125 2.796875 -0.03125 C 2.203125 -0.03125 1.757812 -0.0195312 1.46875 0 L 1.46875 -0.1875 C 1.738281 -0.195312 1.929688 -0.222656 2.046875 -0.265625 C 2.171875 -0.304688 2.253906 -0.382812 2.296875 -0.5 C 2.347656 -0.613281 2.375 -0.796875 2.375 -1.046875 L 2.375 -6.171875 L 1.890625 -6.171875 C 1.515625 -6.171875 1.238281 -6.113281 1.0625 -6 C 0.882812 -5.894531 0.757812 -5.726562 0.6875 -5.5 C 0.613281 -5.28125 0.550781 -4.941406 0.5 -4.484375 L 0.296875 -4.484375 C 0.316406 -4.671875 0.328125 -4.914062 0.328125 -5.21875 C 0.328125 -5.5625 0.304688 -5.945312 0.265625 -6.375 C 0.765625 -6.351562 1.609375 -6.34375 2.796875 -6.34375 C 3.984375 -6.34375 4.828125 -6.351562 5.328125 -6.375 Z M 5.328125 -6.375 "/></g></g></g><g fill="#365b6d" fill-opacity="1"><g transform="translate(244.527353, 265.486389)"><g><path d="M 5.890625 -6.1875 C 5.679688 -6.175781 5.523438 -6.144531 5.421875 -6.09375 C 5.328125 -6.039062 5.257812 -5.957031 5.21875 -5.84375 C 5.1875 -5.726562 5.171875 -5.554688 5.171875 -5.328125 L 5.171875 -2.625 C 5.171875 -2.1875 5.140625 -1.8125 5.078125 -1.5 C 5.023438 -1.195312 4.929688 -0.9375 4.796875 -0.71875 C 4.648438 -0.457031 4.429688 -0.25 4.140625 -0.09375 C 3.847656 0.0507812 3.519531 0.125 3.15625 0.125 C 2.488281 0.125 1.984375 -0.0351562 1.640625 -0.359375 C 1.367188 -0.609375 1.1875 -0.890625 1.09375 -1.203125 C 1.007812 -1.515625 0.96875 -1.976562 0.96875 -2.59375 L 0.96875 -5.421875 C 0.96875 -5.648438 0.945312 -5.8125 0.90625 -5.90625 C 0.875 -6.007812 0.804688 -6.078125 0.703125 -6.109375 C 0.609375 -6.148438 0.457031 -6.175781 0.25 -6.1875 L 0.25 -6.375 C 0.5 -6.351562 0.878906 -6.34375 1.390625 -6.34375 C 1.878906 -6.34375 2.257812 -6.351562 2.53125 -6.375 L 2.53125 -6.1875 C 2.320312 -6.175781 2.164062 -6.148438 2.0625 -6.109375 C 1.96875 -6.078125 1.898438 -6.007812 1.859375 -5.90625 C 1.828125 -5.8125 1.8125 -5.648438 1.8125 -5.421875 L 1.8125 -2.4375 C 1.8125 -1.957031 1.84375 -1.554688 1.90625 -1.234375 C 1.96875 -0.921875 2.101562 -0.664062 2.3125 -0.46875 C 2.519531 -0.28125 2.828125 -0.1875 3.234375 -0.1875 C 3.867188 -0.1875 4.3125 -0.390625 4.5625 -0.796875 C 4.820312 -1.203125 4.953125 -1.773438 4.953125 -2.515625 L 4.953125 -5.328125 C 4.953125 -5.648438 4.894531 -5.867188 4.78125 -5.984375 C 4.664062 -6.109375 4.453125 -6.175781 4.140625 -6.1875 L 4.140625 -6.375 C 4.359375 -6.351562 4.664062 -6.34375 5.0625 -6.34375 C 5.414062 -6.34375 5.691406 -6.351562 5.890625 -6.375 Z M 5.890625 -6.1875 "/></g></g></g><g fill="#365b6d" fill-opacity="1"><g transform="translate(113.184116, 277.486388)"><g><path d="M 3.359375 -3.359375 C 4.023438 -3.273438 4.5 -3.085938 4.78125 -2.796875 C 5.0625 -2.503906 5.203125 -2.15625 5.203125 -1.75 C 5.203125 -1.40625 5.113281 -1.097656 4.9375 -0.828125 C 4.769531 -0.566406 4.519531 -0.363281 4.1875 -0.21875 C 3.863281 -0.0703125 3.484375 0 3.046875 0 C 2.878906 0 2.738281 -0.00390625 2.625 -0.015625 C 2.238281 -0.0234375 1.863281 -0.03125 1.5 -0.03125 C 1 -0.03125 0.625 -0.0195312 0.375 0 L 0.375 -0.1875 C 0.59375 -0.195312 0.75 -0.21875 0.84375 -0.25 C 0.945312 -0.289062 1.015625 -0.359375 1.046875 -0.453125 C 1.085938 -0.554688 1.109375 -0.722656 1.109375 -0.953125 L 1.109375 -5.421875 C 1.109375 -5.648438 1.085938 -5.8125 1.046875 -5.90625 C 1.015625 -6.007812 0.945312 -6.078125 0.84375 -6.109375 C 0.75 -6.148438 0.59375 -6.175781 0.375 -6.1875 L 0.375 -6.375 C 0.625 -6.351562 0.988281 -6.34375 1.46875 -6.34375 L 2.453125 -6.359375 C 2.566406 -6.359375 2.691406 -6.359375 2.828125 -6.359375 C 3.441406 -6.359375 3.910156 -6.226562 4.234375 -5.96875 C 4.566406 -5.71875 4.734375 -5.378906 4.734375 -4.953125 C 4.734375 -4.597656 4.625 -4.28125 4.40625 -4 C 4.1875 -3.726562 3.835938 -3.523438 3.359375 -3.390625 Z M 2.609375 -6.1875 C 2.421875 -6.1875 2.28125 -6.164062 2.1875 -6.125 C 2.09375 -6.082031 2.023438 -6.003906 1.984375 -5.890625 C 1.953125 -5.785156 1.9375 -5.628906 1.9375 -5.421875 L 1.9375 -3.390625 L 2.546875 -3.390625 C 3.035156 -3.390625 3.378906 -3.519531 3.578125 -3.78125 C 3.773438 -4.050781 3.875 -4.40625 3.875 -4.84375 C 3.875 -5.300781 3.773438 -5.640625 3.578125 -5.859375 C 3.378906 -6.078125 3.054688 -6.1875 2.609375 -6.1875 Z M 2.625 -0.203125 C 3.738281 -0.203125 4.296875 -0.726562 4.296875 -1.78125 C 4.296875 -2.257812 4.164062 -2.617188 3.90625 -2.859375 C 3.65625 -3.109375 3.253906 -3.234375 2.703125 -3.234375 L 1.9375 -3.234375 L 1.9375 -0.953125 C 1.9375 -0.734375 1.953125 -0.570312 1.984375 -0.46875 C 2.023438 -0.375 2.09375 -0.304688 2.1875 -0.265625 C 2.28125 -0.222656 2.425781 -0.203125 2.625 -0.203125 Z M 2.625 -0.203125 "/></g></g></g><g fill="#365b6d" fill-opacity="1"><g transform="translate(121.304168, 277.486388)"><g><path d="M 2.671875 -6.1875 C 2.453125 -6.175781 2.289062 -6.148438 2.1875 -6.109375 C 2.09375 -6.078125 2.023438 -6.007812 1.984375 -5.90625 C 1.953125 -5.8125 1.9375 -5.648438 1.9375 -5.421875 L 1.9375 -0.953125 C 1.9375 -0.722656 1.953125 -0.554688 1.984375 -0.453125 C 2.023438 -0.359375 2.09375 -0.289062 2.1875 -0.25 C 2.289062 -0.21875 2.453125 -0.195312 2.671875 -0.1875 L 2.671875 0 C 2.398438 -0.0195312 2.019531 -0.03125 1.53125 -0.03125 C 1.007812 -0.03125 0.625 -0.0195312 0.375 0 L 0.375 -0.1875 C 0.59375 -0.195312 0.75 -0.21875 0.84375 -0.25 C 0.945312 -0.289062 1.015625 -0.359375 1.046875 -0.453125 C 1.085938 -0.554688 1.109375 -0.722656 1.109375 -0.953125 L 1.109375 -5.421875 C 1.109375 -5.648438 1.085938 -5.8125 1.046875 -5.90625 C 1.015625 -6.007812 0.945312 -6.078125 0.84375 -6.109375 C 0.75 -6.148438 0.59375 -6.175781 0.375 -6.1875 L 0.375 -6.375 C 0.625 -6.351562 1.007812 -6.34375 1.53125 -6.34375 C 2.007812 -6.34375 2.390625 -6.351562 2.671875 -6.375 Z M 2.671875 -6.1875 "/></g></g></g><g fill="#365b6d" fill-opacity="1"><g transform="translate(126.868194, 277.486388)"><g><path d="M 4.984375 -1.15625 C 4.984375 -0.8125 5.003906 -0.425781 5.046875 0 C 4.640625 -0.0195312 3.953125 -0.03125 2.984375 -0.03125 C 1.835938 -0.03125 0.96875 -0.0195312 0.375 0 L 0.375 -0.1875 C 0.59375 -0.195312 0.75 -0.21875 0.84375 -0.25 C 0.945312 -0.289062 1.015625 -0.359375 1.046875 -0.453125 C 1.085938 -0.554688 1.109375 -0.722656 1.109375 -0.953125 L 1.109375 -5.421875 C 1.109375 -5.648438 1.085938 -5.8125 1.046875 -5.90625 C 1.015625 -6.007812 0.945312 -6.078125 0.84375 -6.109375 C 0.75 -6.148438 0.59375 -6.175781 0.375 -6.1875 L 0.375 -6.375 C 0.96875 -6.351562 1.835938 -6.34375 2.984375 -6.34375 C 3.867188 -6.34375 4.5 -6.351562 4.875 -6.375 C 4.832031 -5.976562 4.8125 -5.625 4.8125 -5.3125 C 4.8125 -5.070312 4.816406 -4.882812 4.828125 -4.75 L 4.625 -4.75 C 4.582031 -5.144531 4.523438 -5.4375 4.453125 -5.625 C 4.390625 -5.8125 4.28125 -5.945312 4.125 -6.03125 C 3.96875 -6.125 3.734375 -6.171875 3.421875 -6.171875 L 2.671875 -6.171875 C 2.453125 -6.171875 2.289062 -6.148438 2.1875 -6.109375 C 2.09375 -6.078125 2.023438 -6.007812 1.984375 -5.90625 C 1.953125 -5.8125 1.9375 -5.648438 1.9375 -5.421875 L 1.9375 -3.296875 L 2.53125 -3.296875 C 2.75 -3.296875 2.910156 -3.34375 3.015625 -3.4375 C 3.128906 -3.539062 3.207031 -3.660156 3.25 -3.796875 C 3.289062 -3.929688 3.320312 -4.097656 3.34375 -4.296875 L 3.375 -4.484375 L 3.578125 -4.484375 C 3.566406 -4.234375 3.5625 -3.953125 3.5625 -3.640625 L 3.5625 -3.203125 C 3.5625 -2.898438 3.578125 -2.472656 3.609375 -1.921875 L 3.40625 -1.921875 C 3.394531 -1.960938 3.375 -2.109375 3.34375 -2.359375 C 3.3125 -2.609375 3.226562 -2.796875 3.09375 -2.921875 C 2.957031 -3.046875 2.769531 -3.109375 2.53125 -3.109375 L 1.9375 -3.109375 L 1.9375 -0.953125 C 1.9375 -0.722656 1.953125 -0.554688 1.984375 -0.453125 C 2.023438 -0.359375 2.09375 -0.289062 2.1875 -0.25 C 2.289062 -0.21875 2.453125 -0.203125 2.671875 -0.203125 L 3.328125 -0.203125 C 3.703125 -0.203125 3.984375 -0.25 4.171875 -0.34375 C 4.367188 -0.445312 4.515625 -0.609375 4.609375 -0.828125 C 4.703125 -1.046875 4.769531 -1.367188 4.8125 -1.796875 L 5.015625 -1.796875 C 4.992188 -1.640625 4.984375 -1.425781 4.984375 -1.15625 Z M 4.984375 -1.15625 "/></g></g></g><g fill="#365b6d" fill-opacity="1"><g transform="translate(134.862237, 277.486388)"><g><path d="M 6.03125 -6.1875 C 5.820312 -6.175781 5.664062 -6.144531 5.5625 -6.09375 C 5.457031 -6.039062 5.382812 -5.957031 5.34375 -5.84375 C 5.3125 -5.726562 5.296875 -5.554688 5.296875 -5.328125 L 5.296875 0.046875 L 5.09375 0.046875 L 1.3125 -5.796875 L 1.3125 -1.046875 C 1.3125 -0.804688 1.332031 -0.628906 1.375 -0.515625 C 1.414062 -0.398438 1.488281 -0.316406 1.59375 -0.265625 C 1.707031 -0.222656 1.890625 -0.195312 2.140625 -0.1875 L 2.140625 0 C 1.921875 -0.0195312 1.613281 -0.03125 1.21875 -0.03125 C 0.851562 -0.03125 0.570312 -0.0195312 0.375 0 L 0.375 -0.1875 C 0.582031 -0.195312 0.738281 -0.222656 0.84375 -0.265625 C 0.945312 -0.316406 1.015625 -0.398438 1.046875 -0.515625 C 1.085938 -0.640625 1.109375 -0.816406 1.109375 -1.046875 L 1.109375 -5.421875 C 1.109375 -5.648438 1.085938 -5.8125 1.046875 -5.90625 C 1.015625 -6.007812 0.945312 -6.078125 0.84375 -6.109375 C 0.75 -6.148438 0.59375 -6.175781 0.375 -6.1875 L 0.375 -6.375 C 0.570312 -6.351562 0.851562 -6.34375 1.21875 -6.34375 C 1.488281 -6.34375 1.722656 -6.351562 1.921875 -6.375 L 5.09375 -1.46875 L 5.09375 -5.328125 C 5.09375 -5.554688 5.070312 -5.726562 5.03125 -5.84375 C 5 -5.957031 4.925781 -6.039062 4.8125 -6.09375 C 4.695312 -6.144531 4.519531 -6.175781 4.28125 -6.1875 L 4.28125 -6.375 C 4.488281 -6.351562 4.789062 -6.34375 5.1875 -6.34375 C 5.550781 -6.34375 5.832031 -6.351562 6.03125 -6.375 Z M 6.03125 -6.1875 "/></g></g></g><g fill="#365b6d" fill-opacity="1"><g transform="translate(143.72929, 277.486388)"><g><path d="M 4.984375 -1.15625 C 4.984375 -0.8125 5.003906 -0.425781 5.046875 0 C 4.640625 -0.0195312 3.953125 -0.03125 2.984375 -0.03125 C 1.835938 -0.03125 0.96875 -0.0195312 0.375 0 L 0.375 -0.1875 C 0.59375 -0.195312 0.75 -0.21875 0.84375 -0.25 C 0.945312 -0.289062 1.015625 -0.359375 1.046875 -0.453125 C 1.085938 -0.554688 1.109375 -0.722656 1.109375 -0.953125 L 1.109375 -5.421875 C 1.109375 -5.648438 1.085938 -5.8125 1.046875 -5.90625 C 1.015625 -6.007812 0.945312 -6.078125 0.84375 -6.109375 C 0.75 -6.148438 0.59375 -6.175781 0.375 -6.1875 L 0.375 -6.375 C 0.96875 -6.351562 1.835938 -6.34375 2.984375 -6.34375 C 3.867188 -6.34375 4.5 -6.351562 4.875 -6.375 C 4.832031 -5.976562 4.8125 -5.625 4.8125 -5.3125 C 4.8125 -5.070312 4.816406 -4.882812 4.828125 -4.75 L 4.625 -4.75 C 4.582031 -5.144531 4.523438 -5.4375 4.453125 -5.625 C 4.390625 -5.8125 4.28125 -5.945312 4.125 -6.03125 C 3.96875 -6.125 3.734375 -6.171875 3.421875 -6.171875 L 2.671875 -6.171875 C 2.453125 -6.171875 2.289062 -6.148438 2.1875 -6.109375 C 2.09375 -6.078125 2.023438 -6.007812 1.984375 -5.90625 C 1.953125 -5.8125 1.9375 -5.648438 1.9375 -5.421875 L 1.9375 -3.296875 L 2.53125 -3.296875 C 2.75 -3.296875 2.910156 -3.34375 3.015625 -3.4375 C 3.128906 -3.539062 3.207031 -3.660156 3.25 -3.796875 C 3.289062 -3.929688 3.320312 -4.097656 3.34375 -4.296875 L 3.375 -4.484375 L 3.578125 -4.484375 C 3.566406 -4.234375 3.5625 -3.953125 3.5625 -3.640625 L 3.5625 -3.203125 C 3.5625 -2.898438 3.578125 -2.472656 3.609375 -1.921875 L 3.40625 -1.921875 C 3.394531 -1.960938 3.375 -2.109375 3.34375 -2.359375 C 3.3125 -2.609375 3.226562 -2.796875 3.09375 -2.921875 C 2.957031 -3.046875 2.769531 -3.109375 2.53125 -3.109375 L 1.9375 -3.109375 L 1.9375 -0.953125 C 1.9375 -0.722656 1.953125 -0.554688 1.984375 -0.453125 C 2.023438 -0.359375 2.09375 -0.289062 2.1875 -0.25 C 2.289062 -0.21875 2.453125 -0.203125 2.671875 -0.203125 L 3.328125 -0.203125 C 3.703125 -0.203125 3.984375 -0.25 4.171875 -0.34375 C 4.367188 -0.445312 4.515625 -0.609375 4.609375 -0.828125 C 4.703125 -1.046875 4.769531 -1.367188 4.8125 -1.796875 L 5.015625 -1.796875 C 4.992188 -1.640625 4.984375 -1.425781 4.984375 -1.15625 Z M 4.984375 -1.15625 "/></g></g></g><g fill="#365b6d" fill-opacity="1"><g transform="translate(151.723331, 277.486388)"><g><path d="M 2.296875 -6.46875 C 2.566406 -6.46875 2.773438 -6.4375 2.921875 -6.375 C 3.078125 -6.320312 3.238281 -6.242188 3.40625 -6.140625 C 3.53125 -6.054688 3.628906 -6.015625 3.703125 -6.015625 C 3.753906 -6.015625 3.796875 -6.046875 3.828125 -6.109375 C 3.859375 -6.171875 3.882812 -6.269531 3.90625 -6.40625 L 4.109375 -6.40625 C 4.078125 -6.0625 4.0625 -5.453125 4.0625 -4.578125 L 3.859375 -4.578125 C 3.828125 -5.054688 3.6875 -5.460938 3.4375 -5.796875 C 3.195312 -6.128906 2.847656 -6.296875 2.390625 -6.296875 C 2.066406 -6.296875 1.800781 -6.195312 1.59375 -6 C 1.382812 -5.8125 1.28125 -5.5625 1.28125 -5.25 C 1.28125 -5.019531 1.332031 -4.820312 1.4375 -4.65625 C 1.550781 -4.488281 1.6875 -4.34375 1.84375 -4.21875 C 2.007812 -4.101562 2.238281 -3.953125 2.53125 -3.765625 L 2.796875 -3.609375 C 3.171875 -3.378906 3.46875 -3.175781 3.6875 -3 C 3.90625 -2.820312 4.082031 -2.617188 4.21875 -2.390625 C 4.351562 -2.160156 4.421875 -1.890625 4.421875 -1.578125 C 4.421875 -1.035156 4.238281 -0.613281 3.875 -0.3125 C 3.519531 -0.0195312 3.066406 0.125 2.515625 0.125 C 2.222656 0.125 1.984375 0.09375 1.796875 0.03125 C 1.617188 -0.0195312 1.445312 -0.0976562 1.28125 -0.203125 C 1.144531 -0.285156 1.039062 -0.328125 0.96875 -0.328125 C 0.914062 -0.328125 0.875 -0.296875 0.84375 -0.234375 C 0.8125 -0.171875 0.789062 -0.0703125 0.78125 0.0625 L 0.5625 0.0625 C 0.59375 -0.269531 0.609375 -0.988281 0.609375 -2.09375 L 0.8125 -2.09375 C 0.851562 -1.488281 1 -0.992188 1.25 -0.609375 C 1.507812 -0.234375 1.910156 -0.046875 2.453125 -0.046875 C 2.773438 -0.046875 3.050781 -0.144531 3.28125 -0.34375 C 3.507812 -0.550781 3.625 -0.851562 3.625 -1.25 C 3.625 -1.582031 3.507812 -1.863281 3.28125 -2.09375 C 3.050781 -2.332031 2.695312 -2.597656 2.21875 -2.890625 C 1.863281 -3.109375 1.578125 -3.300781 1.359375 -3.46875 C 1.140625 -3.632812 0.957031 -3.835938 0.8125 -4.078125 C 0.675781 -4.316406 0.609375 -4.59375 0.609375 -4.90625 C 0.609375 -5.414062 0.769531 -5.800781 1.09375 -6.0625 C 1.414062 -6.332031 1.816406 -6.46875 2.296875 -6.46875 Z M 2.296875 -6.46875 "/></g></g></g><g fill="#365b6d" fill-opacity="1"><g transform="translate(159.09637, 277.486388)"><g><path d="M 5.328125 -6.375 C 5.285156 -5.945312 5.265625 -5.5625 5.265625 -5.21875 C 5.265625 -4.914062 5.273438 -4.671875 5.296875 -4.484375 L 5.078125 -4.484375 C 5.035156 -4.941406 4.976562 -5.28125 4.90625 -5.5 C 4.832031 -5.726562 4.703125 -5.894531 4.515625 -6 C 4.335938 -6.113281 4.066406 -6.171875 3.703125 -6.171875 L 3.21875 -6.171875 L 3.21875 -1.046875 C 3.21875 -0.796875 3.238281 -0.613281 3.28125 -0.5 C 3.332031 -0.382812 3.414062 -0.304688 3.53125 -0.265625 C 3.65625 -0.222656 3.851562 -0.195312 4.125 -0.1875 L 4.125 0 C 3.8125 -0.0195312 3.367188 -0.03125 2.796875 -0.03125 C 2.203125 -0.03125 1.757812 -0.0195312 1.46875 0 L 1.46875 -0.1875 C 1.738281 -0.195312 1.929688 -0.222656 2.046875 -0.265625 C 2.171875 -0.304688 2.253906 -0.382812 2.296875 -0.5 C 2.347656 -0.613281 2.375 -0.796875 2.375 -1.046875 L 2.375 -6.171875 L 1.890625 -6.171875 C 1.515625 -6.171875 1.238281 -6.113281 1.0625 -6 C 0.882812 -5.894531 0.757812 -5.726562 0.6875 -5.5 C 0.613281 -5.28125 0.550781 -4.941406 0.5 -4.484375 L 0.296875 -4.484375 C 0.316406 -4.671875 0.328125 -4.914062 0.328125 -5.21875 C 0.328125 -5.5625 0.304688 -5.945312 0.265625 -6.375 C 0.765625 -6.351562 1.609375 -6.34375 2.796875 -6.34375 C 3.984375 -6.34375 4.828125 -6.351562 5.328125 -6.375 Z M 5.328125 -6.375 "/></g></g></g><g fill="#365b6d" fill-opacity="1"><g transform="translate(167.198423, 277.486388)"><g><path d="M 5.109375 -0.75 C 5.242188 -0.382812 5.445312 -0.195312 5.71875 -0.1875 L 5.71875 0 C 5.476562 -0.0195312 5.160156 -0.03125 4.765625 -0.03125 C 4.242188 -0.03125 3.859375 -0.0195312 3.609375 0 L 3.609375 -0.1875 C 3.835938 -0.195312 4 -0.222656 4.09375 -0.265625 C 4.195312 -0.304688 4.25 -0.390625 4.25 -0.515625 C 4.25 -0.617188 4.210938 -0.757812 4.140625 -0.9375 L 3.59375 -2.40625 L 1.40625 -2.40625 L 1.046875 -1.453125 C 0.921875 -1.128906 0.859375 -0.882812 0.859375 -0.71875 C 0.859375 -0.53125 0.921875 -0.394531 1.046875 -0.3125 C 1.179688 -0.226562 1.378906 -0.1875 1.640625 -0.1875 L 1.640625 0 C 1.304688 -0.0195312 0.960938 -0.03125 0.609375 -0.03125 C 0.335938 -0.03125 0.113281 -0.0195312 -0.0625 0 L -0.0625 -0.1875 C 0.238281 -0.25 0.472656 -0.507812 0.640625 -0.96875 L 2.765625 -6.421875 L 2.90625 -6.421875 Z M 3.515625 -2.59375 L 2.515625 -5.28125 L 1.484375 -2.59375 Z M 3.515625 -2.59375 "/></g></g></g><g fill="#365b6d" fill-opacity="1"><g transform="translate(175.381474, 277.486388)"><g><path d="M 5.9375 -0.453125 C 5.800781 -0.242188 5.660156 -0.09375 5.515625 0 C 5.378906 0.0820312 5.203125 0.125 4.984375 0.125 C 4.734375 0.125 4.523438 0.0507812 4.359375 -0.09375 C 4.203125 -0.238281 4.085938 -0.488281 4.015625 -0.84375 L 3.8125 -1.75 C 3.738281 -2.0625 3.671875 -2.300781 3.609375 -2.46875 C 3.546875 -2.632812 3.453125 -2.769531 3.328125 -2.875 C 3.203125 -2.976562 3.023438 -3.03125 2.796875 -3.03125 L 1.9375 -3.03125 L 1.9375 -0.953125 C 1.9375 -0.722656 1.953125 -0.554688 1.984375 -0.453125 C 2.023438 -0.359375 2.09375 -0.289062 2.1875 -0.25 C 2.289062 -0.21875 2.453125 -0.195312 2.671875 -0.1875 L 2.671875 0 C 2.398438 -0.0195312 2.019531 -0.03125 1.53125 -0.03125 C 1.007812 -0.03125 0.625 -0.0195312 0.375 0 L 0.375 -0.1875 C 0.59375 -0.195312 0.75 -0.21875 0.84375 -0.25 C 0.945312 -0.289062 1.015625 -0.359375 1.046875 -0.453125 C 1.085938 -0.554688 1.109375 -0.722656 1.109375 -0.953125 L 1.109375 -5.421875 C 1.109375 -5.648438 1.085938 -5.8125 1.046875 -5.90625 C 1.015625 -6.007812 0.945312 -6.078125 0.84375 -6.109375 C 0.75 -6.148438 0.59375 -6.175781 0.375 -6.1875 L 0.375 -6.375 C 0.625 -6.351562 0.988281 -6.34375 1.46875 -6.34375 L 2.453125 -6.359375 C 2.566406 -6.359375 2.691406 -6.359375 2.828125 -6.359375 C 3.523438 -6.359375 4.0625 -6.210938 4.4375 -5.921875 C 4.8125 -5.628906 5 -5.253906 5 -4.796875 C 5 -4.566406 4.941406 -4.332031 4.828125 -4.09375 C 4.722656 -3.851562 4.539062 -3.640625 4.28125 -3.453125 C 4.019531 -3.265625 3.679688 -3.132812 3.265625 -3.0625 L 3.359375 -3.046875 C 3.753906 -2.984375 4.039062 -2.863281 4.21875 -2.6875 C 4.40625 -2.519531 4.539062 -2.242188 4.625 -1.859375 L 4.84375 -0.9375 C 4.90625 -0.664062 4.96875 -0.472656 5.03125 -0.359375 C 5.101562 -0.253906 5.195312 -0.203125 5.3125 -0.203125 C 5.414062 -0.203125 5.5 -0.226562 5.5625 -0.28125 C 5.632812 -0.34375 5.71875 -0.429688 5.8125 -0.546875 Z M 2.609375 -6.1875 C 2.421875 -6.1875 2.28125 -6.164062 2.1875 -6.125 C 2.09375 -6.082031 2.023438 -6.003906 1.984375 -5.890625 C 1.953125 -5.785156 1.9375 -5.628906 1.9375 -5.421875 L 1.9375 -3.203125 L 2.546875 -3.203125 C 3.140625 -3.203125 3.546875 -3.332031 3.765625 -3.59375 C 3.992188 -3.863281 4.109375 -4.234375 4.109375 -4.703125 C 4.109375 -5.191406 3.988281 -5.5625 3.75 -5.8125 C 3.519531 -6.0625 3.140625 -6.1875 2.609375 -6.1875 Z M 2.609375 -6.1875 "/></g></g></g><g fill="#365b6d" fill-opacity="1"><g transform="translate(183.726528, 277.486388)"><g/></g></g><g fill="#365b6d" fill-opacity="1"><g transform="translate(188.480553, 277.486388)"><g><path d="M 4.984375 -1.15625 C 4.984375 -0.8125 5.003906 -0.425781 5.046875 0 C 4.640625 -0.0195312 3.953125 -0.03125 2.984375 -0.03125 C 1.835938 -0.03125 0.96875 -0.0195312 0.375 0 L 0.375 -0.1875 C 0.59375 -0.195312 0.75 -0.21875 0.84375 -0.25 C 0.945312 -0.289062 1.015625 -0.359375 1.046875 -0.453125 C 1.085938 -0.554688 1.109375 -0.722656 1.109375 -0.953125 L 1.109375 -5.421875 C 1.109375 -5.648438 1.085938 -5.8125 1.046875 -5.90625 C 1.015625 -6.007812 0.945312 -6.078125 0.84375 -6.109375 C 0.75 -6.148438 0.59375 -6.175781 0.375 -6.1875 L 0.375 -6.375 C 0.96875 -6.351562 1.835938 -6.34375 2.984375 -6.34375 C 3.867188 -6.34375 4.5 -6.351562 4.875 -6.375 C 4.832031 -5.976562 4.8125 -5.625 4.8125 -5.3125 C 4.8125 -5.070312 4.816406 -4.882812 4.828125 -4.75 L 4.625 -4.75 C 4.582031 -5.144531 4.523438 -5.4375 4.453125 -5.625 C 4.390625 -5.8125 4.28125 -5.945312 4.125 -6.03125 C 3.96875 -6.125 3.734375 -6.171875 3.421875 -6.171875 L 2.671875 -6.171875 C 2.453125 -6.171875 2.289062 -6.148438 2.1875 -6.109375 C 2.09375 -6.078125 2.023438 -6.007812 1.984375 -5.90625 C 1.953125 -5.8125 1.9375 -5.648438 1.9375 -5.421875 L 1.9375 -3.296875 L 2.53125 -3.296875 C 2.75 -3.296875 2.910156 -3.34375 3.015625 -3.4375 C 3.128906 -3.539062 3.207031 -3.660156 3.25 -3.796875 C 3.289062 -3.929688 3.320312 -4.097656 3.34375 -4.296875 L 3.375 -4.484375 L 3.578125 -4.484375 C 3.566406 -4.234375 3.5625 -3.953125 3.5625 -3.640625 L 3.5625 -3.203125 C 3.5625 -2.898438 3.578125 -2.472656 3.609375 -1.921875 L 3.40625 -1.921875 C 3.394531 -1.960938 3.375 -2.109375 3.34375 -2.359375 C 3.3125 -2.609375 3.226562 -2.796875 3.09375 -2.921875 C 2.957031 -3.046875 2.769531 -3.109375 2.53125 -3.109375 L 1.9375 -3.109375 L 1.9375 -0.953125 C 1.9375 -0.722656 1.953125 -0.554688 1.984375 -0.453125 C 2.023438 -0.359375 2.09375 -0.289062 2.1875 -0.25 C 2.289062 -0.21875 2.453125 -0.203125 2.671875 -0.203125 L 3.328125 -0.203125 C 3.703125 -0.203125 3.984375 -0.25 4.171875 -0.34375 C 4.367188 -0.445312 4.515625 -0.609375 4.609375 -0.828125 C 4.703125 -1.046875 4.769531 -1.367188 4.8125 -1.796875 L 5.015625 -1.796875 C 4.992188 -1.640625 4.984375 -1.425781 4.984375 -1.15625 Z M 4.984375 -1.15625 "/></g></g></g><g fill="#365b6d" fill-opacity="1"><g transform="translate(196.474593, 277.486388)"><g><path d="M 7.46875 -6.1875 C 7.25 -6.175781 7.085938 -6.148438 6.984375 -6.109375 C 6.890625 -6.078125 6.820312 -6.007812 6.78125 -5.90625 C 6.75 -5.8125 6.734375 -5.648438 6.734375 -5.421875 L 6.734375 -0.953125 C 6.734375 -0.722656 6.75 -0.554688 6.78125 -0.453125 C 6.820312 -0.359375 6.890625 -0.289062 6.984375 -0.25 C 7.085938 -0.21875 7.25 -0.195312 7.46875 -0.1875 L 7.46875 0 C 7.1875 -0.0195312 6.800781 -0.03125 6.3125 -0.03125 C 5.800781 -0.03125 5.421875 -0.0195312 5.171875 0 L 5.171875 -0.1875 C 5.378906 -0.195312 5.53125 -0.21875 5.625 -0.25 C 5.726562 -0.289062 5.796875 -0.359375 5.828125 -0.453125 C 5.867188 -0.554688 5.890625 -0.722656 5.890625 -0.953125 L 5.890625 -5.78125 L 3.71875 0.046875 L 3.578125 0.046875 L 1.3125 -5.796875 L 1.3125 -1.046875 C 1.3125 -0.804688 1.332031 -0.628906 1.375 -0.515625 C 1.414062 -0.398438 1.488281 -0.316406 1.59375 -0.265625 C 1.707031 -0.222656 1.890625 -0.195312 2.140625 -0.1875 L 2.140625 0 C 1.921875 -0.0195312 1.613281 -0.03125 1.21875 -0.03125 C 0.851562 -0.03125 0.570312 -0.0195312 0.375 0 L 0.375 -0.1875 C 0.582031 -0.195312 0.738281 -0.222656 0.84375 -0.265625 C 0.945312 -0.316406 1.015625 -0.398438 1.046875 -0.515625 C 1.085938 -0.640625 1.109375 -0.816406 1.109375 -1.046875 L 1.109375 -5.421875 C 1.109375 -5.648438 1.085938 -5.8125 1.046875 -5.90625 C 1.015625 -6.007812 0.945312 -6.078125 0.84375 -6.109375 C 0.75 -6.148438 0.59375 -6.175781 0.375 -6.1875 L 0.375 -6.375 C 0.570312 -6.351562 0.851562 -6.34375 1.21875 -6.34375 C 1.53125 -6.34375 1.785156 -6.351562 1.984375 -6.375 L 3.953125 -1.15625 L 5.890625 -6.34375 L 6.3125 -6.34375 C 6.800781 -6.34375 7.1875 -6.351562 7.46875 -6.375 Z M 7.46875 -6.1875 "/></g></g></g><g fill="#365b6d" fill-opacity="1"><g transform="translate(206.826655, 277.486388)"><g><path d="M 3.34375 -6.5 C 3.90625 -6.5 4.398438 -6.367188 4.828125 -6.109375 C 5.265625 -5.847656 5.597656 -5.472656 5.828125 -4.984375 C 6.066406 -4.492188 6.1875 -3.910156 6.1875 -3.234375 C 6.1875 -2.578125 6.066406 -1.992188 5.828125 -1.484375 C 5.585938 -0.972656 5.25 -0.578125 4.8125 -0.296875 C 4.375 -0.015625 3.878906 0.125 3.328125 0.125 C 2.753906 0.125 2.253906 0 1.828125 -0.25 C 1.398438 -0.507812 1.066406 -0.882812 0.828125 -1.375 C 0.597656 -1.863281 0.484375 -2.445312 0.484375 -3.125 C 0.484375 -3.789062 0.601562 -4.378906 0.84375 -4.890625 C 1.082031 -5.398438 1.421875 -5.796875 1.859375 -6.078125 C 2.296875 -6.359375 2.789062 -6.5 3.34375 -6.5 Z M 3.296875 -6.34375 C 2.921875 -6.34375 2.585938 -6.207031 2.296875 -5.9375 C 2.003906 -5.664062 1.773438 -5.289062 1.609375 -4.8125 C 1.453125 -4.332031 1.375 -3.785156 1.375 -3.171875 C 1.375 -2.546875 1.460938 -1.992188 1.640625 -1.515625 C 1.816406 -1.046875 2.054688 -0.679688 2.359375 -0.421875 C 2.660156 -0.160156 2.992188 -0.03125 3.359375 -0.03125 C 3.742188 -0.03125 4.082031 -0.164062 4.375 -0.4375 C 4.664062 -0.707031 4.890625 -1.082031 5.046875 -1.5625 C 5.210938 -2.039062 5.296875 -2.585938 5.296875 -3.203125 C 5.296875 -3.828125 5.207031 -4.375 5.03125 -4.84375 C 4.851562 -5.320312 4.613281 -5.691406 4.3125 -5.953125 C 4.007812 -6.210938 3.671875 -6.34375 3.296875 -6.34375 Z M 3.296875 -6.34375 "/></g></g></g><g fill="#365b6d" fill-opacity="1"><g transform="translate(216.008713, 277.486388)"><g><path d="M 3.34375 -6.5 C 3.695312 -6.5 4 -6.445312 4.25 -6.34375 C 4.507812 -6.238281 4.757812 -6.09375 5 -5.90625 C 5.0625 -5.851562 5.117188 -5.828125 5.171875 -5.828125 C 5.285156 -5.828125 5.363281 -6.007812 5.40625 -6.375 L 5.609375 -6.375 C 5.585938 -5.976562 5.578125 -5.285156 5.578125 -4.296875 L 5.359375 -4.296875 C 5.296875 -4.691406 5.238281 -4.972656 5.1875 -5.140625 C 5.132812 -5.316406 5.039062 -5.484375 4.90625 -5.640625 C 4.726562 -5.867188 4.5 -6.039062 4.21875 -6.15625 C 3.945312 -6.28125 3.648438 -6.34375 3.328125 -6.34375 C 2.929688 -6.34375 2.585938 -6.210938 2.296875 -5.953125 C 2.003906 -5.691406 1.773438 -5.320312 1.609375 -4.84375 C 1.453125 -4.363281 1.375 -3.804688 1.375 -3.171875 C 1.375 -2.515625 1.460938 -1.953125 1.640625 -1.484375 C 1.816406 -1.015625 2.054688 -0.65625 2.359375 -0.40625 C 2.671875 -0.164062 3.019531 -0.046875 3.40625 -0.046875 C 3.707031 -0.046875 4 -0.101562 4.28125 -0.21875 C 4.5625 -0.332031 4.785156 -0.503906 4.953125 -0.734375 C 5.066406 -0.898438 5.148438 -1.078125 5.203125 -1.265625 C 5.265625 -1.460938 5.316406 -1.757812 5.359375 -2.15625 L 5.578125 -2.15625 C 5.578125 -1.125 5.585938 -0.40625 5.609375 0 L 5.40625 0 C 5.382812 -0.1875 5.359375 -0.320312 5.328125 -0.40625 C 5.296875 -0.488281 5.25 -0.53125 5.1875 -0.53125 C 5.132812 -0.53125 5.070312 -0.503906 5 -0.453125 C 4.726562 -0.265625 4.46875 -0.117188 4.21875 -0.015625 C 3.976562 0.078125 3.679688 0.125 3.328125 0.125 C 2.753906 0.125 2.253906 0 1.828125 -0.25 C 1.398438 -0.507812 1.066406 -0.882812 0.828125 -1.375 C 0.597656 -1.863281 0.484375 -2.445312 0.484375 -3.125 C 0.484375 -3.789062 0.601562 -4.378906 0.84375 -4.890625 C 1.082031 -5.398438 1.421875 -5.796875 1.859375 -6.078125 C 2.296875 -6.359375 2.789062 -6.5 3.34375 -6.5 Z M 3.34375 -6.5 "/></g></g></g><g fill="#365b6d" fill-opacity="1"><g transform="translate(224.713763, 277.486388)"><g><path d="M 2.671875 -6.1875 C 2.453125 -6.175781 2.289062 -6.148438 2.1875 -6.109375 C 2.09375 -6.078125 2.023438 -6.007812 1.984375 -5.90625 C 1.953125 -5.8125 1.9375 -5.648438 1.9375 -5.421875 L 1.9375 -0.953125 C 1.9375 -0.722656 1.953125 -0.554688 1.984375 -0.453125 C 2.023438 -0.359375 2.09375 -0.289062 2.1875 -0.25 C 2.289062 -0.21875 2.453125 -0.195312 2.671875 -0.1875 L 2.671875 0 C 2.398438 -0.0195312 2.019531 -0.03125 1.53125 -0.03125 C 1.007812 -0.03125 0.625 -0.0195312 0.375 0 L 0.375 -0.1875 C 0.59375 -0.195312 0.75 -0.21875 0.84375 -0.25 C 0.945312 -0.289062 1.015625 -0.359375 1.046875 -0.453125 C 1.085938 -0.554688 1.109375 -0.722656 1.109375 -0.953125 L 1.109375 -5.421875 C 1.109375 -5.648438 1.085938 -5.8125 1.046875 -5.90625 C 1.015625 -6.007812 0.945312 -6.078125 0.84375 -6.109375 C 0.75 -6.148438 0.59375 -6.175781 0.375 -6.1875 L 0.375 -6.375 C 0.625 -6.351562 1.007812 -6.34375 1.53125 -6.34375 C 2.007812 -6.34375 2.390625 -6.351562 2.671875 -6.375 Z M 2.671875 -6.1875 "/></g></g></g><g fill="#365b6d" fill-opacity="1"><g transform="translate(230.277789, 277.486388)"><g><path d="M 3.34375 -6.5 C 3.90625 -6.5 4.398438 -6.367188 4.828125 -6.109375 C 5.265625 -5.847656 5.597656 -5.472656 5.828125 -4.984375 C 6.066406 -4.492188 6.1875 -3.910156 6.1875 -3.234375 C 6.1875 -2.578125 6.066406 -1.992188 5.828125 -1.484375 C 5.585938 -0.972656 5.25 -0.578125 4.8125 -0.296875 C 4.375 -0.015625 3.878906 0.125 3.328125 0.125 C 2.753906 0.125 2.253906 0 1.828125 -0.25 C 1.398438 -0.507812 1.066406 -0.882812 0.828125 -1.375 C 0.597656 -1.863281 0.484375 -2.445312 0.484375 -3.125 C 0.484375 -3.789062 0.601562 -4.378906 0.84375 -4.890625 C 1.082031 -5.398438 1.421875 -5.796875 1.859375 -6.078125 C 2.296875 -6.359375 2.789062 -6.5 3.34375 -6.5 Z M 3.296875 -6.34375 C 2.921875 -6.34375 2.585938 -6.207031 2.296875 -5.9375 C 2.003906 -5.664062 1.773438 -5.289062 1.609375 -4.8125 C 1.453125 -4.332031 1.375 -3.785156 1.375 -3.171875 C 1.375 -2.546875 1.460938 -1.992188 1.640625 -1.515625 C 1.816406 -1.046875 2.054688 -0.679688 2.359375 -0.421875 C 2.660156 -0.160156 2.992188 -0.03125 3.359375 -0.03125 C 3.742188 -0.03125 4.082031 -0.164062 4.375 -0.4375 C 4.664062 -0.707031 4.890625 -1.082031 5.046875 -1.5625 C 5.210938 -2.039062 5.296875 -2.585938 5.296875 -3.203125 C 5.296875 -3.828125 5.207031 -4.375 5.03125 -4.84375 C 4.851562 -5.320312 4.613281 -5.691406 4.3125 -5.953125 C 4.007812 -6.210938 3.671875 -6.34375 3.296875 -6.34375 Z M 3.296875 -6.34375 "/></g></g></g><g fill="#365b6d" fill-opacity="1"><g transform="translate(239.459841, 277.486388)"><g><path d="M 6.03125 -6.1875 C 5.820312 -6.175781 5.664062 -6.144531 5.5625 -6.09375 C 5.457031 -6.039062 5.382812 -5.957031 5.34375 -5.84375 C 5.3125 -5.726562 5.296875 -5.554688 5.296875 -5.328125 L 5.296875 0.046875 L 5.09375 0.046875 L 1.3125 -5.796875 L 1.3125 -1.046875 C 1.3125 -0.804688 1.332031 -0.628906 1.375 -0.515625 C 1.414062 -0.398438 1.488281 -0.316406 1.59375 -0.265625 C 1.707031 -0.222656 1.890625 -0.195312 2.140625 -0.1875 L 2.140625 0 C 1.921875 -0.0195312 1.613281 -0.03125 1.21875 -0.03125 C 0.851562 -0.03125 0.570312 -0.0195312 0.375 0 L 0.375 -0.1875 C 0.582031 -0.195312 0.738281 -0.222656 0.84375 -0.265625 C 0.945312 -0.316406 1.015625 -0.398438 1.046875 -0.515625 C 1.085938 -0.640625 1.109375 -0.816406 1.109375 -1.046875 L 1.109375 -5.421875 C 1.109375 -5.648438 1.085938 -5.8125 1.046875 -5.90625 C 1.015625 -6.007812 0.945312 -6.078125 0.84375 -6.109375 C 0.75 -6.148438 0.59375 -6.175781 0.375 -6.1875 L 0.375 -6.375 C 0.570312 -6.351562 0.851562 -6.34375 1.21875 -6.34375 C 1.488281 -6.34375 1.722656 -6.351562 1.921875 -6.375 L 5.09375 -1.46875 L 5.09375 -5.328125 C 5.09375 -5.554688 5.070312 -5.726562 5.03125 -5.84375 C 5 -5.957031 4.925781 -6.039062 4.8125 -6.09375 C 4.695312 -6.144531 4.519531 -6.175781 4.28125 -6.1875 L 4.28125 -6.375 C 4.488281 -6.351562 4.789062 -6.34375 5.1875 -6.34375 C 5.550781 -6.34375 5.832031 -6.351562 6.03125 -6.375 Z M 6.03125 -6.1875 "/></g></g></g><g fill="#365b6d" fill-opacity="1"><g transform="translate(248.326894, 277.486388)"><g><path d="M 5.109375 -0.75 C 5.242188 -0.382812 5.445312 -0.195312 5.71875 -0.1875 L 5.71875 0 C 5.476562 -0.0195312 5.160156 -0.03125 4.765625 -0.03125 C 4.242188 -0.03125 3.859375 -0.0195312 3.609375 0 L 3.609375 -0.1875 C 3.835938 -0.195312 4 -0.222656 4.09375 -0.265625 C 4.195312 -0.304688 4.25 -0.390625 4.25 -0.515625 C 4.25 -0.617188 4.210938 -0.757812 4.140625 -0.9375 L 3.59375 -2.40625 L 1.40625 -2.40625 L 1.046875 -1.453125 C 0.921875 -1.128906 0.859375 -0.882812 0.859375 -0.71875 C 0.859375 -0.53125 0.921875 -0.394531 1.046875 -0.3125 C 1.179688 -0.226562 1.378906 -0.1875 1.640625 -0.1875 L 1.640625 0 C 1.304688 -0.0195312 0.960938 -0.03125 0.609375 -0.03125 C 0.335938 -0.03125 0.113281 -0.0195312 -0.0625 0 L -0.0625 -0.1875 C 0.238281 -0.25 0.472656 -0.507812 0.640625 -0.96875 L 2.765625 -6.421875 L 2.90625 -6.421875 Z M 3.515625 -2.59375 L 2.515625 -5.28125 L 1.484375 -2.59375 Z M 3.515625 -2.59375 "/></g></g></g><g fill="#365b6d" fill-opacity="1"><g transform="translate(256.509946, 277.486388)"><g><path d="M 2.671875 -6.1875 C 2.453125 -6.175781 2.289062 -6.148438 2.1875 -6.109375 C 2.09375 -6.078125 2.023438 -6.007812 1.984375 -5.90625 C 1.953125 -5.8125 1.9375 -5.648438 1.9375 -5.421875 L 1.9375 -0.953125 C 1.9375 -0.722656 1.953125 -0.554688 1.984375 -0.453125 C 2.023438 -0.359375 2.09375 -0.289062 2.1875 -0.25 C 2.289062 -0.21875 2.453125 -0.203125 2.671875 -0.203125 L 3.328125 -0.203125 C 3.703125 -0.203125 3.984375 -0.253906 4.171875 -0.359375 C 4.367188 -0.460938 4.515625 -0.628906 4.609375 -0.859375 C 4.703125 -1.097656 4.769531 -1.441406 4.8125 -1.890625 L 5.015625 -1.890625 C 4.992188 -1.703125 4.984375 -1.457031 4.984375 -1.15625 C 4.984375 -0.8125 5.003906 -0.425781 5.046875 0 C 4.640625 -0.0195312 3.953125 -0.03125 2.984375 -0.03125 C 1.835938 -0.03125 0.96875 -0.0195312 0.375 0 L 0.375 -0.1875 C 0.59375 -0.195312 0.75 -0.21875 0.84375 -0.25 C 0.945312 -0.289062 1.015625 -0.359375 1.046875 -0.453125 C 1.085938 -0.554688 1.109375 -0.722656 1.109375 -0.953125 L 1.109375 -5.421875 C 1.109375 -5.648438 1.085938 -5.8125 1.046875 -5.90625 C 1.015625 -6.007812 0.945312 -6.078125 0.84375 -6.109375 C 0.75 -6.148438 0.59375 -6.175781 0.375 -6.1875 L 0.375 -6.375 C 0.625 -6.351562 1.007812 -6.34375 1.53125 -6.34375 C 2.007812 -6.34375 2.390625 -6.351562 2.671875 -6.375 Z M 2.671875 -6.1875 "/></g></g></g></svg>