<svg width="360" height="287" viewBox="0 0 360 287" fill="none" xmlns="http://www.w3.org/2000/svg">
<g filter="url(#filter0_d_487_1152)">
<path d="M-29.0221 247.973C-22.4399 241.517 -13.7609 237.662 -5.01865 234.743C13.3114 228.601 32.6955 225.994 52.0229 225.564C66.3158 225.246 81.1872 225.989 94.2425 220.164C102.341 216.548 109.154 210.629 115.977 204.949C149.332 177.223 187.971 152.761 231.17 148.901C242.1 147.924 253.185 148.28 263.924 146.063C287.867 141.11 307.531 123.862 322.491 104.525C337.452 85.1893 348.826 63.2948 363.6 43.8058C372.729 31.7646 383.436 20.4492 397.013 13.8199C410.588 7.20034 427.486 5.94447 440.506 13.5946C411.049 129.153 381.58 244.719 352.123 360.277C353.384 355.335 177.42 325.608 161.383 323.637C129.232 319.674 96.9432 316.781 64.5947 314.979C33.4289 313.24 1.01327 315.971 -29.9056 312.55C-43.1596 311.084 -48.8658 306.209 -47.0536 292.778C-45.0122 277.535 -40.3272 259.048 -29.0318 247.971L-29.0221 247.973Z" fill="#146152"/>
</g>
<defs>
<filter id="filter0_d_487_1152" x="-51.3811" y="0.341776" width="495.887" height="359.936" filterUnits="userSpaceOnUse" color-interpolation-filters="sRGB">
<feFlood flood-opacity="0" result="BackgroundImageFix"/>
<feColorMatrix in="SourceAlpha" type="matrix" values="0 0 0 0 0 0 0 0 0 0 0 0 0 0 0 0 0 0 127 0" result="hardAlpha"/>
<feOffset dy="-4"/>
<feGaussianBlur stdDeviation="2"/>
<feComposite in2="hardAlpha" operator="out"/>
<feColorMatrix type="matrix" values="0 0 0 0 0 0 0 0 0 0 0 0 0 0 0 0 0 0 0.25 0"/>
<feBlend mode="normal" in2="BackgroundImageFix" result="effect1_dropShadow_487_1152"/>
<feBlend mode="normal" in="SourceGraphic" in2="effect1_dropShadow_487_1152" result="shape"/>
</filter>
</defs>
</svg>
